<?xml version="1.0" encoding="UTF-8"?>
<svg id="Layer_2" data-name="Layer 2" xmlns="http://www.w3.org/2000/svg" viewBox="0 0 111.3 111.3">
  <g id="Layer_1-2" data-name="Layer 1">
    <path d="M0,55.67c0-5.12.66-10.06,1.98-14.81,1.32-4.75,3.19-9.19,5.61-13.31,2.42-4.12,5.32-7.87,8.71-11.26,3.39-3.39,7.14-6.29,11.26-8.71,4.12-2.42,8.56-4.29,13.31-5.61,4.75-1.32,9.69-1.98,14.81-1.98s10.05.66,14.79,1.98c4.74,1.32,9.17,3.19,13.29,5.61,4.12,2.42,7.87,5.32,11.26,8.71,3.39,3.39,6.29,7.14,8.71,11.26s4.29,8.56,5.61,13.31c1.32,4.75,1.98,9.69,1.98,14.81,0,4.68-.55,9.18-1.65,13.52-1.1,4.34-2.66,8.45-4.7,12.33-.25.45-.41.88-.45,1.31s-.02.83.07,1.22l4.48,17.89c.29,1.08.28,2.11-.02,3.1s-.8,1.82-1.48,2.5-1.51,1.18-2.48,1.48c-.97.3-2,.31-3.08.02l-17.94-4.53c-.38-.06-.79-.07-1.22-.02s-.87.2-1.31.45c-3.88,2.04-7.99,3.6-12.33,4.7s-8.85,1.65-13.52,1.65c-5.12,0-10.06-.66-14.81-1.98-4.75-1.32-9.19-3.19-13.31-5.61-4.12-2.42-7.87-5.32-11.26-8.71-3.39-3.39-6.29-7.14-8.71-11.26-2.42-4.12-4.29-8.55-5.61-13.29-1.32-4.74-1.98-9.67-1.98-14.79h0ZM55.67,8.78c-4.33,0-8.48.56-12.47,1.67-3.99,1.11-7.72,2.69-11.19,4.72-3.47,2.04-6.63,4.48-9.49,7.35s-5.31,6.03-7.35,9.49-3.61,7.2-4.72,11.19c-1.11,3.99-1.67,8.15-1.67,12.47s.56,8.44,1.67,12.43c1.11,3.99,2.69,7.73,4.72,11.21,2.04,3.48,4.48,6.65,7.35,9.49,2.86,2.85,6.03,5.29,9.49,7.32,3.47,2.04,7.2,3.61,11.19,4.72,3.99,1.11,8.15,1.67,12.47,1.67,3.98,0,7.78-.46,11.43-1.38,3.64-.92,7.1-2.24,10.38-3.96,1.27-.7,2.66-1.16,4.17-1.38s3.05-.14,4.6.24l13.17,3.34-3.39-13.17c-.38-1.53-.46-3.05-.24-4.56.22-1.51.68-2.9,1.38-4.17,1.72-3.28,3.05-6.73,3.98-10.38s1.41-7.45,1.41-11.43c0-4.33-.56-8.48-1.67-12.47-1.11-3.99-2.69-7.72-4.72-11.19-2.04-3.47-4.48-6.63-7.35-9.49s-6.03-5.31-9.49-7.35c-3.47-2.04-7.2-3.61-11.21-4.72-4.01-1.11-8.16-1.67-12.45-1.67h0Z"/>
  </g>
</svg>