<?xml version="1.0" encoding="UTF-8"?>
<svg id="Layer_2" data-name="Layer 2" xmlns="http://www.w3.org/2000/svg" viewBox="0 0 110.81 105.97">
  <g id="Layer_1-2" data-name="Layer 1">
    <path d="M57.76,19.23c0-2.67.51-5.18,1.53-7.51,1.02-2.34,2.4-4.37,4.14-6.11,1.74-1.74,3.78-3.11,6.11-4.11,2.34-1,4.84-1.5,7.51-1.5s5.18.5,7.51,1.5c2.34,1,4.37,2.37,6.11,4.11,1.74,1.74,3.12,3.78,4.14,6.11,1.02,2.34,1.53,4.84,1.53,7.51s-.51,5.18-1.53,7.51c-1.02,2.34-2.4,4.38-4.14,6.15-1.74,1.76-3.78,3.14-6.11,4.14-2.34,1-4.84,1.5-7.51,1.5s-5.18-.5-7.51-1.5c-2.34-1-4.37-2.38-6.11-4.14-1.74-1.76-3.12-3.81-4.14-6.15-1.02-2.34-1.53-4.84-1.53-7.51h0ZM77.06,9.62c-1.32,0-2.57.25-3.76.76-1.19.51-2.21,1.2-3.06,2.07-.85.87-1.53,1.89-2.04,3.06-.51,1.17-.76,2.41-.76,3.73s.25,2.57.76,3.76c.51,1.19,1.19,2.22,2.04,3.09.85.87,1.87,1.56,3.06,2.07,1.19.51,2.44.76,3.76.76s2.62-.25,3.79-.76,2.18-1.2,3.02-2.07c.85-.87,1.53-1.9,2.04-3.09s.76-2.44.76-3.76-.25-2.56-.76-3.73c-.51-1.17-1.19-2.19-2.04-3.06-.85-.87-1.86-1.56-3.02-2.07s-2.43-.76-3.79-.76h0ZM33.69,21.65c-2.67,0-5.18.51-7.51,1.53-2.34,1.02-4.37,2.4-6.11,4.14-1.74,1.74-3.11,3.78-4.11,6.11-1,2.34-1.5,4.84-1.5,7.51s.5,5.18,1.5,7.51c1,2.34,2.37,4.37,4.11,6.11,1.74,1.74,3.78,3.11,6.11,4.11,2.34,1,4.84,1.5,7.51,1.5s5.18-.5,7.51-1.5c2.34-1,4.37-2.37,6.11-4.11,1.74-1.74,3.12-3.78,4.14-6.11,1.02-2.34,1.53-4.84,1.53-7.51s-.51-5.18-1.53-7.51c-1.02-2.34-2.4-4.37-4.14-6.11-1.74-1.74-3.78-3.12-6.11-4.14-2.34-1.02-4.84-1.53-7.51-1.53h0ZM24.07,40.95c0-1.36.25-2.62.76-3.79.51-1.17,1.2-2.18,2.07-3.02.87-.85,1.89-1.53,3.06-2.04,1.17-.51,2.41-.76,3.73-.76s2.62.25,3.79.76c1.17.51,2.18,1.19,3.02,2.04.85.85,1.53,1.86,2.04,3.02.51,1.17.76,2.43.76,3.79s-.25,2.56-.76,3.73c-.51,1.17-1.19,2.19-2.04,3.06-.85.87-1.86,1.56-3.02,2.07-1.17.51-2.43.76-3.79.76s-2.56-.25-3.73-.76c-1.17-.51-2.19-1.2-3.06-2.07-.87-.87-1.56-1.89-2.07-3.06-.51-1.17-.76-2.41-.76-3.73h0ZM24.07,67.44c-3.31,0-6.43.63-9.36,1.88-2.93,1.25-5.49,2.97-7.67,5.16-2.19,2.19-3.91,4.74-5.16,7.67-1.25,2.93-1.88,6.05-1.88,9.36,0,2,.38,3.87,1.15,5.64s1.79,3.29,3.09,4.59c1.29,1.29,2.82,2.32,4.59,3.09,1.76.76,3.64,1.15,5.64,1.15h38.59c2,0,3.86-.38,5.6-1.15,1.74-.76,3.27-1.79,4.59-3.09,1.32-1.29,2.35-2.82,3.09-4.59.74-1.76,1.11-3.64,1.11-5.64,0-3.31-.63-6.43-1.88-9.36-1.25-2.93-2.97-5.49-5.16-7.67-2.19-2.19-4.74-3.91-7.67-5.16-2.93-1.25-6.05-1.88-9.36-1.88h-19.3ZM9.62,91.51c0-2,.38-3.87,1.15-5.64s1.79-3.29,3.09-4.59c1.29-1.29,2.82-2.32,4.59-3.09,1.76-.76,3.64-1.15,5.64-1.15h19.3c2,0,3.87.38,5.64,1.15,1.76.76,3.3,1.79,4.62,3.09,1.32,1.29,2.35,2.82,3.09,4.59.74,1.76,1.11,3.64,1.11,5.64,0,1.36-.47,2.5-1.4,3.44-.93.93-2.06,1.4-3.38,1.4H14.46c-1.36,0-2.5-.47-3.44-1.4-.93-.93-1.4-2.08-1.4-3.44h0ZM67.44,45.79h-.89c-.3,0-.59.02-.89.06-1.36.08-2.46.63-3.31,1.62-.85,1-1.23,2.18-1.15,3.53.08,1.32.63,2.4,1.62,3.25,1,.85,2.18,1.23,3.53,1.15h20.38c2,0,3.87.37,5.64,1.11,1.76.74,3.29,1.77,4.59,3.09,1.29,1.32,2.32,2.86,3.09,4.62s1.15,3.64,1.15,5.64c0,1.36-.47,2.49-1.4,3.41-.93.91-2.08,1.37-3.44,1.37h-16.37c-1.32,0-2.44.47-3.38,1.4-.93.93-1.4,2.08-1.4,3.44s.47,2.5,1.4,3.44c.93.93,2.06,1.4,3.38,1.4h16.37c2,0,3.87-.38,5.64-1.15,1.76-.76,3.3-1.79,4.62-3.09,1.32-1.29,2.35-2.82,3.09-4.59.74-1.76,1.11-3.64,1.11-5.64,0-3.31-.63-6.43-1.88-9.36s-2.97-5.49-5.16-7.67c-2.19-2.19-4.74-3.91-7.67-5.16s-6.05-1.88-9.36-1.88h-19.3Z"/>
  </g>
</svg>