<?xml version="1.0" encoding="UTF-8"?>
<svg id="Layer_2" data-name="Layer 2" xmlns="http://www.w3.org/2000/svg" viewBox="0 0 108.84 111.28">
  <g id="Layer_1-2" data-name="Layer 1">
    <path d="M106.19,35.96c-.64-1.33-1.43-2.56-2.35-3.67-.92-1.12-1.98-2.22-3.16-3.32-1.18-1.1-2.5-2.21-3.96-3.35s-3.05-2.35-4.77-3.64l-11.08-8.25c-2.79-2.06-5.31-3.92-7.54-5.57-2.23-1.65-4.36-3.06-6.38-4.22-2.02-1.2-4.05-2.16-6.09-2.87s-4.18-1.06-6.41-1.06-4.42.35-6.44,1.06-4.04,1.66-6.06,2.87c-2.02,1.16-4.15,2.57-6.38,4.22s-4.75,3.51-7.54,5.57l-11.15,8.25c-1.72,1.29-3.3,2.5-4.74,3.64s-2.76,2.26-3.96,3.35c-1.2,1.1-2.27,2.2-3.19,3.32-.92,1.12-1.71,2.34-2.35,3.67-.64,1.29-1.15,2.65-1.51,4.09-.37,1.44-.62,2.96-.77,4.58-.15,1.61-.25,3.33-.29,5.16-.04,1.83-.06,3.81-.06,5.96v21.26c0,3.39.02,6.47.06,9.21.04,2.75.21,5.22.52,7.41.3,2.32.84,4.47,1.61,6.44.77,1.98,1.98,3.78,3.61,5.41,1.68,1.63,3.5,2.84,5.48,3.61,1.98.77,4.12,1.31,6.44,1.61,2.19.3,4.65.47,7.38.52,2.73.04,5.79.06,9.18.06h40.27c3.39,0,6.45-.02,9.18-.06,2.73-.04,5.19-.21,7.38-.52,2.32-.3,4.47-.84,6.44-1.61,1.98-.77,3.8-1.98,5.48-3.61,1.63-1.63,2.84-3.44,3.61-5.41.77-1.98,1.31-4.12,1.61-6.44.3-2.19.47-4.66.52-7.41.04-2.75.06-5.82.06-9.21v-21.26c0-2.15-.02-4.13-.06-5.96s-.14-3.54-.29-5.16c-.15-1.61-.41-3.14-.77-4.58-.37-1.44-.87-2.8-1.51-4.09h0ZM64.37,101.36h-19.85v-32.09c0-.64.25-1.21.74-1.71s1.06-.74,1.71-.74h14.89c.64,0,1.22.25,1.74.74.52.49.77,1.06.77,1.71v32.09h0ZM98.91,76.68c0,3.57-.02,6.6-.06,9.12-.04,2.51-.17,4.67-.39,6.48-.26,1.8-.59,3.16-1,4.06-.41.9-.89,1.61-1.45,2.13-.56.56-1.29,1.05-2.19,1.48s-2.23.75-4,.97c-1.85.26-4.01.4-6.48.42-2.47.02-5.51.03-9.12.03v-32.09c0-1.72-.32-3.33-.97-4.83-.64-1.5-1.53-2.81-2.64-3.93-1.12-1.12-2.44-2-3.96-2.64-1.53-.64-3.13-.97-4.8-.97h-14.89c-1.68,0-3.27.32-4.77.97-1.5.64-2.81,1.53-3.93,2.64s-2,2.43-2.64,3.93c-.64,1.5-.97,3.11-.97,4.83v32.09c-3.61,0-6.66-.01-9.15-.03-2.49-.02-4.64-.16-6.44-.42-1.76-.21-3.1-.54-4.03-.97-.92-.43-1.66-.92-2.22-1.48-.56-.52-1.03-1.22-1.42-2.13-.39-.9-.71-2.26-.97-4.06-.26-1.8-.41-3.96-.45-6.48-.04-2.51-.06-5.55-.06-9.12v-19.78c0-2.58.02-4.74.06-6.48.04-1.74.12-3.24.23-4.51s.27-2.33.48-3.19c.21-.86.49-1.63.84-2.32.34-.73.79-1.44,1.35-2.13.56-.69,1.31-1.45,2.26-2.29.95-.84,2.12-1.78,3.51-2.84,1.4-1.05,3.1-2.35,5.12-3.9l9.86-7.41c2.92-2.19,5.43-4.06,7.54-5.61,2.11-1.55,4.02-2.81,5.73-3.8,1.63-.95,3.04-1.6,4.22-1.97,1.18-.37,2.29-.55,3.32-.55s2.14.18,3.32.55c1.18.37,2.59,1.02,4.22,1.97,1.72.99,3.62,2.26,5.7,3.8,2.08,1.55,4.59,3.42,7.51,5.61l9.92,7.41c2.02,1.5,3.73,2.79,5.12,3.87,1.4,1.07,2.56,2.03,3.48,2.87.92.84,1.68,1.6,2.26,2.29s1.04,1.4,1.39,2.13c.34.69.62,1.46.84,2.32.21.86.37,1.92.45,3.19s.15,2.77.19,4.51c.04,1.74.06,3.9.06,6.48v19.78h0Z"/>
  </g>
</svg>