<?xml version="1.0" encoding="UTF-8"?>
<svg id="Layer_2" data-name="Layer 2" xmlns="http://www.w3.org/2000/svg" viewBox="0 0 103.17 105.5">
  <g id="Layer_1-2" data-name="Layer 1">
    <path d="M39.77,3.73c1.91-1.14,3.83-2.05,5.74-2.72s3.95-1.01,6.11-1.01,4.14.34,6.08,1.01,3.86,1.58,5.77,2.72c1.91,1.1,3.93,2.43,6.05,4,2.12,1.57,4.5,3.33,7.15,5.28l10.51,7.82c1.63,1.22,3.14,2.37,4.52,3.45s2.64,2.14,3.76,3.18c1.12,1.04,2.12,2.09,2.99,3.15.88,1.06,1.62,2.22,2.23,3.48.61,1.22,1.09,2.51,1.44,3.88.35,1.36.59,2.81.73,4.34.14,1.53.23,3.16.27,4.89s.06,3.61.06,5.65v20.16c0,3.22-.02,6.13-.06,8.74-.04,2.61-.2,4.95-.49,7.02-.29,2.2-.79,4.24-1.53,6.11-.73,1.87-1.87,3.58-3.42,5.13-1.59,1.55-3.32,2.69-5.19,3.42-1.87.73-3.91,1.24-6.11,1.53-2.08.29-4.41.45-6.99.49-2.59.04-5.49.06-8.7.06h-38.18c-3.22,0-6.12-.02-8.7-.06-2.59-.04-4.92-.2-6.99-.49-2.2-.29-4.24-.79-6.11-1.53-1.87-.73-3.6-1.87-5.19-3.42-1.55-1.55-2.69-3.26-3.42-5.13-.73-1.87-1.24-3.91-1.53-6.11-.29-2.08-.45-4.42-.49-7.02-.04-2.61-.06-5.52-.06-8.74v-20.16c0-2.04.02-3.92.06-5.65.04-1.73.13-3.36.27-4.89.14-1.53.39-2.97.73-4.34.35-1.36.82-2.66,1.44-3.88.61-1.26,1.35-2.42,2.23-3.48.88-1.06,1.88-2.11,3.02-3.15,1.14-1.04,2.39-2.1,3.76-3.18s2.86-2.23,4.49-3.45l10.57-7.82c2.65-1.95,5.03-3.72,7.15-5.28s4.13-2.9,6.05-4h0ZM44.53,58.64c-.98,0-1.89.18-2.75.55-.86.37-1.59.87-2.2,1.5-.61.63-1.1,1.37-1.47,2.23s-.55,1.77-.55,2.75v30.42h28.1v-30.42c0-.98-.18-1.89-.55-2.75s-.87-1.6-1.5-2.23c-.63-.63-1.37-1.13-2.23-1.5-.86-.37-1.77-.55-2.75-.55h-14.11Z"/>
  </g>
</svg>