<?xml version="1.0" encoding="UTF-8"?>
<svg id="Layer_2" data-name="Layer 2" xmlns="http://www.w3.org/2000/svg" viewBox="0 0 120 112.99">
  <g id="Layer_1-2" data-name="Layer 1">
    <path d="M120,66.54c0,3.1-.73,5.81-2.18,8.13-.67,1.02-1.39,1.92-2.18,2.71.47,2.12.51,4.24.12,6.36-.43,2.08-1.19,3.94-2.27,5.56s-2.46,2.95-4.15,3.97v1.88c-.12,2.43-.78,4.79-2,7.07-.67,1.26-1.43,2.34-2.3,3.24-.86.9-1.86,1.73-3,2.47-2.79,1.69-6.36,2.53-10.72,2.53h-39.21c-.94-.08-1.95-.23-3.03-.44-1.08-.22-2.17-.5-3.27-.85-1.1-.35-2.18-.79-3.24-1.3-1.06-.51-2.02-1.12-2.89-1.83-.79-.59-1.49-1.18-2.12-1.77v1.94c0,.94-.18,1.83-.53,2.65-.35.82-.82,1.54-1.41,2.15-.59.61-1.29,1.09-2.09,1.44-.8.35-1.68.53-2.62.53H6.65c-.9,0-1.76-.18-2.56-.53s-1.51-.83-2.12-1.44c-.61-.61-1.09-1.32-1.44-2.15-.35-.82-.53-1.71-.53-2.65v-56.76c0-.94.18-1.83.53-2.65.35-.82.83-1.54,1.44-2.15.61-.61,1.31-1.09,2.12-1.44s1.66-.53,2.56-.53h24.26c.94,0,1.82.18,2.62.53.8.35,1.5.83,2.09,1.44.59.61,1.06,1.32,1.41,2.15.35.82.53,1.71.53,2.65l2.18-1,12.13-22.61c.04-.08.08-.18.12-.29.04-.12.06-.22.06-.29l-1.18-15.13c-.08-1.1.07-2.14.44-3.12.37-.98.91-1.86,1.62-2.65,1.26-1.41,2.74-2.49,4.45-3.24,1.71-.75,3.52-1.12,5.45-1.12,1.3,0,2.59.19,3.89.56s2.57.89,3.83,1.56c1.96,1.1,3.74,2.53,5.33,4.3s2.95,3.89,4.09,6.36c.9,2.08,1.61,4.28,2.12,6.59.51,2.32.77,4.63.77,6.95,0,1.22-.12,2.55-.35,4-.24,1.45-.53,3.04-.88,4.77h17.31c1.37,0,2.98.13,4.83.38,1.84.25,3.71.79,5.59,1.62,2.9,1.3,5.16,3.15,6.77,5.56,1.61,2.41,2.41,5.19,2.41,8.33,0,2.16-.35,4.24-1.06,6.24.31.47.67,1.1,1.06,1.88.98,2.12,1.47,4.59,1.47,7.42h0ZM30.09,105.46v-55.29H7.48v55.29h22.61ZM105.52,74.37c1.3-.2,2.45-.61,3.47-1.24.9-.55,1.72-1.33,2.44-2.36.73-1.02,1.09-2.43,1.09-4.24s-.27-3.22-.82-4.24-1.16-1.81-1.83-2.36c-.75-.63-1.61-1.02-2.59-1.18.67-.47,1.28-1.06,1.83-1.77.43-.63.84-1.42,1.24-2.38.39-.96.59-2.17.59-3.62,0-1.88-.46-3.39-1.38-4.5-.92-1.12-2.02-1.95-3.3-2.5-1.28-.55-2.6-.9-3.97-1.06-1.37-.16-2.49-.24-3.36-.24h-24.91c-.47,0-.85-.23-1.15-.68-.29-.45-.4-.89-.32-1.32.16-.86.39-1.93.71-3.21.31-1.28.62-2.59.91-3.95s.55-2.67.77-3.95c.22-1.28.32-2.37.32-3.27,0-1.77-.19-3.55-.56-5.36-.37-1.81-.91-3.49-1.62-5.06s-1.57-2.98-2.59-4.24c-1.02-1.26-2.16-2.22-3.42-2.89-.82-.43-1.6-.74-2.33-.91-.73-.18-1.36-.26-1.91-.26-.63,0-1.2.08-1.71.24-.51.16-.95.34-1.32.56-.37.22-.68.42-.91.62-.24.2-.37.33-.41.41-.08.08-.12.14-.12.18l1.18,15.07c.12,1.65-.22,3.26-1,4.83l-12.6,23.38c-.47.82-1.2,1.49-2.18,2l-6.18,2.89v37.68c.51,0,1.04.17,1.59.5.55.33,1.12.74,1.71,1.21.59.47,1.17.98,1.74,1.53.57.55,1.13,1.04,1.68,1.47.51.39,1.11.76,1.8,1.09.69.33,1.41.62,2.18.85.77.24,1.53.42,2.3.56.77.14,1.48.23,2.15.26h38.63c1.61,0,2.95-.15,4.03-.44,1.08-.29,1.98-.65,2.71-1.06.73-.41,1.3-.86,1.71-1.35.41-.49.74-.95.97-1.38.71-1.33,1.06-2.61,1.06-3.83s-.14-2.32-.41-3.3c-.35-1.1-.84-2.16-1.47-3.18h.29c.35,0,.91-.05,1.68-.15s1.58-.35,2.44-.77c.86-.41,1.67-1.02,2.41-1.83.75-.8,1.28-1.93,1.59-3.39.24-1.18.23-2.26-.03-3.24-.25-.98-.6-1.81-1.03-2.47-.47-.79-1.06-1.51-1.77-2.18h0Z"/>
  </g>
</svg>