<?xml version="1.0" encoding="UTF-8"?>
<svg id="Layer_2" data-name="Layer 2" xmlns="http://www.w3.org/2000/svg" viewBox="0 0 79.67 73.79">
  <g id="Layer_1-2" data-name="Layer 1">
    <path d="M4.91,0c-.65,0-1.28.14-1.89.42s-1.13.63-1.58,1.05-.79.93-1.05,1.54-.39,1.26-.39,1.96.13,1.35.39,1.96c.26.61.61,1.14,1.05,1.61s.97.83,1.58,1.09,1.24.39,1.89.39h69.79c1.4,0,2.58-.49,3.54-1.47s1.44-2.17,1.44-3.57c0-.7-.13-1.35-.39-1.96-.26-.61-.61-1.12-1.05-1.54-.44-.42-.97-.77-1.58-1.05-.61-.28-1.26-.42-1.96-.42H4.91ZM0,36.86c0-.7.13-1.34.39-1.93s.61-1.11,1.05-1.58.97-.83,1.58-1.09,1.24-.39,1.89-.39h69.79c.7,0,1.35.13,1.96.39.61.26,1.13.62,1.58,1.09.44.47.79.99,1.05,1.58.26.58.39,1.23.39,1.93,0,1.4-.48,2.59-1.44,3.57s-2.14,1.47-3.54,1.47H4.91c-.65,0-1.28-.13-1.89-.39s-1.13-.62-1.58-1.09-.79-1-1.05-1.61-.39-1.26-.39-1.96h0ZM0,68.74c0-.7.13-1.34.39-1.93s.61-1.11,1.05-1.58.97-.83,1.58-1.09,1.24-.39,1.89-.39h69.79c.7,0,1.35.13,1.96.39.61.26,1.13.62,1.58,1.09.44.47.79.99,1.05,1.58.26.58.39,1.23.39,1.93,0,1.4-.48,2.59-1.44,3.57-.96.98-2.14,1.47-3.54,1.47H4.91c-.65,0-1.28-.14-1.89-.42-.61-.28-1.13-.63-1.58-1.05s-.79-.95-1.05-1.58c-.26-.63-.39-1.3-.39-2h0Z"/>
  </g>
</svg>