<?xml version="1.0" encoding="UTF-8"?>
<svg id="Layer_2" data-name="Layer 2" xmlns="http://www.w3.org/2000/svg" viewBox="0 0 110.93 106.03">
  <g id="Layer_1-2" data-name="Layer 1">
    <path d="M110.93,32.77c0,3.43-.65,6.65-1.95,9.67s-3.08,5.67-5.34,7.97v22.22c0,3.31-.02,6.29-.06,8.95-.04,2.66-.21,5.05-.5,7.19-.29,2.26-.82,4.35-1.57,6.28-.75,1.93-1.93,3.7-3.52,5.34-1.59,1.59-3.35,2.76-5.27,3.52-1.93.75-4.02,1.28-6.28,1.57-2.18.29-4.6.46-7.28.5-2.68.04-5.65.06-8.91.06h-29.57c-3.26,0-6.24-.02-8.91-.06-2.68-.04-5.11-.21-7.28-.5-2.26-.29-4.35-.82-6.28-1.57s-3.68-1.93-5.27-3.52c-1.59-1.63-2.76-3.41-3.52-5.34-.75-1.93-1.28-4.02-1.57-6.28-.29-2.13-.46-4.53-.5-7.19-.04-2.66-.06-5.64-.06-8.95v-22.22c-2.26-2.3-4.04-4.96-5.34-7.97-1.3-3.01-1.95-6.24-1.95-9.67,0-1.51.13-3.01.38-4.52.25-1.51.59-2.97,1-4.39l3.89-13.12c.46-1.59,1.17-3.04,2.13-4.36.96-1.32,2.07-2.45,3.33-3.39,1.26-.94,2.66-1.67,4.21-2.2,1.55-.52,3.14-.78,4.77-.78h71.51c1.67,0,3.28.26,4.8.78,1.53.52,2.92,1.26,4.17,2.2s2.36,2.07,3.33,3.39c.96,1.32,1.67,2.77,2.13,4.36l3.89,13.12c.42,1.42.75,2.89,1,4.39.25,1.51.38,3.01.38,4.52h0ZM65.16,79.48c0-.67-.25-1.23-.75-1.7-.5-.46-1.07-.69-1.7-.69h-14.5c-.63,0-1.19.23-1.7.69-.5.46-.75,1.03-.75,1.7v16.89h19.4v-16.89h0ZM93.98,56.5c-2.51.88-5.23,1.32-8.16,1.32s-5.56-.45-8.13-1.35c-2.57-.9-4.93-2.14-7.06-3.74-2.13,1.59-4.48,2.84-7.03,3.74-2.55.9-5.25,1.35-8.1,1.35s-5.61-.45-8.16-1.35c-2.55-.9-4.9-2.14-7.03-3.74-2.13,1.59-4.49,2.84-7.06,3.74-2.57.9-5.28,1.35-8.13,1.35s-5.65-.44-8.16-1.32v15.82c0,3.47.01,6.42.03,8.85.02,2.43.16,4.52.41,6.28.13.88.27,1.64.44,2.29s.35,1.2.53,1.66.4.86.63,1.19c.23.33.49.65.78.94.5.54,1.21,1.01,2.13,1.41.92.4,2.22.7,3.89.91,1.34.17,2.86.29,4.55.38,1.7.08,3.63.13,5.81.13v-16.89c0-1.63.31-3.18.94-4.65.63-1.46,1.49-2.74,2.57-3.83,1.09-1.09,2.37-1.95,3.86-2.57,1.49-.63,3.04-.94,4.68-.94h14.5c1.63,0,3.19.31,4.68.94,1.49.63,2.77,1.49,3.86,2.57,1.09,1.09,1.95,2.36,2.57,3.83s.94,3.01.94,4.65v16.89c2.18,0,4.11-.04,5.81-.13,1.7-.08,3.21-.21,4.55-.38,1.72-.21,3.02-.51,3.92-.91.9-.4,1.6-.87,2.1-1.41.29-.29.55-.61.78-.94.23-.33.44-.73.63-1.19s.37-1.01.53-1.66.31-1.41.44-2.29c.25-1.76.39-3.85.41-6.28.02-2.43.03-5.38.03-8.85v-15.82h0ZM85.82,48.21c2.13,0,4.13-.41,6-1.22,1.86-.82,3.49-1.91,4.9-3.3,1.4-1.38,2.51-3.01,3.33-4.9.82-1.88,1.22-3.89,1.22-6.03s-.31-4.1-.94-6.15l-3.96-13.06c-.38-1.21-1.03-2.17-1.95-2.86s-1.99-1.04-3.2-1.04H19.71c-1.21,0-2.28.35-3.2,1.04s-1.57,1.64-1.95,2.86l-3.96,13.06c-.59,1.93-.88,3.98-.88,6.15s.4,4.14,1.19,6.03c.8,1.88,1.89,3.52,3.3,4.9,1.4,1.38,3.03,2.48,4.9,3.3,1.86.82,3.86,1.22,6,1.22,2.3,0,4.45-.47,6.43-1.41s3.71-2.23,5.18-3.86c.42-.5.94-.89,1.57-1.16.63-.27,1.3-.41,2.01-.41,1.42,0,2.62.52,3.58,1.57,1.42,1.63,3.13,2.92,5.12,3.86s4.15,1.41,6.5,1.41,4.46-.47,6.47-1.41,3.7-2.23,5.09-3.86c.92-1.05,2.11-1.57,3.58-1.57.71,0,1.38.14,2.01.41s1.15.66,1.57,1.16c1.46,1.63,3.19,2.92,5.18,3.86,1.99.94,4.13,1.41,6.43,1.41h0Z"/>
  </g>
</svg>