<?xml version="1.0" encoding="UTF-8"?>
<svg id="Layer_2" data-name="Layer 2" xmlns="http://www.w3.org/2000/svg" viewBox="0 0 102 102">
  <g id="Layer_1-2" data-name="Layer 1">
    <path d="M51,0c4.61,0,9.12.61,13.54,1.82,4.42,1.21,8.49,2.92,12.22,5.12,3.73,2.2,7.16,4.87,10.29,8.01,3.14,3.14,5.81,6.57,8.01,10.29,2.2,3.73,3.91,7.8,5.12,12.22,1.21,4.42,1.82,8.93,1.82,13.54s-.61,9.12-1.82,13.54c-1.21,4.42-2.92,8.49-5.12,12.22-2.2,3.73-4.87,7.16-8.01,10.29-3.14,3.14-6.57,5.81-10.29,8.01-3.73,2.2-7.8,3.91-12.22,5.12-4.42,1.21-8.93,1.82-13.54,1.82h-.1c-8.35,0-16.2-1.92-23.55-5.77-.42-.24-.88-.36-1.4-.36-.17,0-.36.02-.57.05l-15.08,3.9c-.55.14-1.11.21-1.66.21-1.84,0-3.41-.65-4.7-1.95-1.3-1.3-1.95-2.87-1.95-4.7,0-.55.07-1.11.21-1.66.17-.62.39-1.46.65-2.5.26-1.04.68-2.66,1.25-4.86.57-2.2,1.05-4.04,1.43-5.51l.57-2.21c.03-.21.05-.42.05-.62,0-.49-.12-.94-.36-1.35-3.85-7.38-5.77-15.27-5.77-23.65,0-4.61.61-9.12,1.82-13.54s2.92-8.49,5.12-12.22c2.2-3.73,4.87-7.16,8.01-10.29,3.14-3.14,6.57-5.81,10.29-8.01,3.73-2.2,7.8-3.91,12.22-5.12,4.42-1.21,8.93-1.82,13.54-1.82h0ZM79.85,38.94c.38-.59.53-1.21.44-1.87-.09-.66-.36-1.19-.81-1.59-.45-.4-.99-.66-1.61-.78s-1.25.04-1.87.49l-16.95,11.7c-.62.42-1.26.42-1.9,0-.64-.42-1.47-.95-2.5-1.61s-2.63-1.7-4.83-3.12c-2.2-1.42-4.03-2.61-5.48-3.56l-2.18-1.43c-.45-.28-.95-.42-1.51-.42-1,0-1.77.42-2.29,1.25l-16.22,25.06c-.38.59-.53,1.21-.44,1.87.09.66.36,1.19.81,1.59.45.4.99.66,1.61.78.62.12,1.25-.04,1.87-.49.73-.49,1.67-1.14,2.83-1.95,1.16-.81,2.98-2.07,5.46-3.77,2.48-1.7,4.54-3.12,6.19-4.26l2.47-1.72c.28-.17.59-.26.94-.26s.66.09.94.26c.66.42,1.51.95,2.55,1.61,1.04.66,2.65,1.7,4.83,3.12s4,2.61,5.46,3.56l2.18,1.43c.45.28.95.42,1.51.42,1,0,1.77-.42,2.29-1.25l16.22-25.06h0Z"/>
  </g>
</svg>