<?xml version="1.0" encoding="UTF-8"?>
<svg id="Layer_2" data-name="Layer 2" xmlns="http://www.w3.org/2000/svg" viewBox="0 0 116 115.93">
  <g id="Layer_1-2" data-name="Layer 1">
    <path d="M58.03,0c-5.36,0-10.5.69-15.44,2.06-4.94,1.37-9.55,3.32-13.84,5.84-4.29,2.52-8.21,5.54-11.75,9.06-3.54,3.52-6.57,7.43-9.1,11.72-2.52,4.29-4.47,8.92-5.84,13.88-1.37,4.96-2.06,10.09-2.06,15.4,0,4.87.58,9.56,1.73,14.08,1.15,4.52,2.79,8.79,4.91,12.82.35.8.46,1.55.33,2.26l-4.45,17.13c-.35,1.42-.33,2.76.07,4.02.4,1.26,1.04,2.35,1.93,3.25.89.91,1.97,1.55,3.25,1.93s2.61.39,3.98.03l17.13-4.45c.66-.22,1.42-.11,2.26.33,4.03,2.12,8.3,3.75,12.82,4.88,4.52,1.13,9.21,1.69,14.08,1.69,5.36,0,10.5-.69,15.44-2.06,4.94-1.37,9.55-3.32,13.84-5.84,4.29-2.52,8.2-5.54,11.72-9.06,3.52-3.52,6.54-7.43,9.06-11.72,2.52-4.29,4.47-8.92,5.84-13.88s2.06-10.09,2.06-15.4-.69-10.5-2.06-15.44c-1.37-4.94-3.32-9.55-5.84-13.84-2.52-4.29-5.54-8.2-9.06-11.72-3.52-3.52-7.43-6.54-11.72-9.06-4.29-2.52-8.92-4.47-13.88-5.84-4.96-1.37-10.09-2.06-15.4-2.06h0ZM58.03,105.84c-4.03,0-7.91-.46-11.65-1.39-3.74-.93-7.27-2.26-10.59-3.98-1.37-.75-2.87-1.25-4.48-1.49-1.62-.24-3.26-.14-4.95.3l-13.01,3.39,3.39-13.01c.44-1.68.54-3.33.3-4.95-.24-1.62-.74-3.13-1.49-4.55-1.73-3.32-3.07-6.84-4.02-10.56-.95-3.72-1.43-7.59-1.43-11.62,0-4.43.58-8.68,1.73-12.75,1.15-4.07,2.76-7.88,4.81-11.42,2.06-3.54,4.55-6.77,7.47-9.69,2.92-2.92,6.16-5.41,9.73-7.47,3.56-2.06,7.38-3.66,11.45-4.81,4.07-1.15,8.32-1.73,12.75-1.73s8.68.58,12.75,1.73c4.07,1.15,7.88,2.76,11.42,4.81,3.54,2.06,6.77,4.55,9.69,7.47s5.41,6.15,7.47,9.69c2.06,3.54,3.66,7.35,4.81,11.42,1.15,4.07,1.73,8.32,1.73,12.75s-.58,8.62-1.73,12.72c-1.15,4.09-2.76,7.91-4.81,11.45-2.06,3.54-4.55,6.77-7.47,9.69-2.92,2.92-6.15,5.41-9.69,7.47-3.54,2.06-7.36,3.66-11.45,4.81-4.09,1.15-8.33,1.73-12.72,1.73h0ZM86.45,39.97l-19.26,13.28c-.71.49-1.44.51-2.19.07l-17.06-11.09c-.75-.49-1.54-.63-2.36-.43-.82.2-1.47.65-1.96,1.36l-18.39,28.49c-.44.71-.61,1.43-.5,2.16.11.73.41,1.34.9,1.83.49.49,1.1.79,1.83.9.73.11,1.45-.08,2.16-.56l19.26-13.28c.66-.49,1.37-.51,2.12-.07l17.06,11.09c.75.49,1.54.63,2.36.43s1.47-.65,1.96-1.36l18.46-28.49c.49-.75.65-1.48.5-2.19-.15-.71-.48-1.31-.96-1.79-.49-.49-1.08-.79-1.79-.9s-1.42.08-2.12.56h0Z"/>
  </g>
</svg>