<?xml version="1.0" encoding="UTF-8"?>
<svg id="Layer_2" data-name="Layer 2" xmlns="http://www.w3.org/2000/svg" viewBox="0 0 105.74 114.84">
  <g id="Layer_1-2" data-name="Layer 1">
    <path d="M104.6,83.38c-2.25-3.6-3.96-7.41-5.13-11.44-1.17-4.03-1.75-8.17-1.75-12.41v-14.56c0-4.12-.53-8.09-1.59-11.93-1.06-3.83-2.57-7.42-4.52-10.76-1.95-3.34-4.29-6.37-7.02-9.1s-5.75-5.07-9.07-7.02-6.89-3.47-10.72-4.55c-3.83-1.08-7.81-1.62-11.93-1.62s-8.09.54-11.93,1.62-7.41,2.6-10.72,4.55-6.34,4.29-9.07,7.02c-2.73,2.73-5.07,5.76-7.02,9.1-1.95,3.34-3.47,6.92-4.55,10.76-1.08,3.83-1.62,7.81-1.62,11.93v14.62c0,4.25-.57,8.37-1.72,12.38-1.15,4.01-2.85,7.81-5.1,11.41C.36,84.59-.02,85.88,0,87.25c.02,1.36.35,2.6.97,3.7.63,1.1,1.51,2.01,2.63,2.73,1.13.71,2.43,1.07,3.9,1.07h23.07c.3,2.86,1.09,5.5,2.37,7.93,1.28,2.43,2.91,4.54,4.91,6.34,1.99,1.8,4.27,3.22,6.82,4.26,2.56,1.04,5.29,1.56,8.19,1.56s5.63-.52,8.19-1.56c2.56-1.04,4.83-2.46,6.82-4.26,1.99-1.8,3.63-3.91,4.91-6.34,1.28-2.43,2.07-5.07,2.37-7.93h23.07c1.47,0,2.78-.36,3.93-1.07,1.15-.71,2.03-1.62,2.63-2.73.61-1.1.92-2.34.94-3.7.02-1.36-.36-2.65-1.14-3.87h0ZM52.87,104.83c-1.47,0-2.89-.25-4.26-.75-1.36-.5-2.59-1.2-3.67-2.11-1.08-.91-1.99-1.98-2.73-3.22-.74-1.23-1.26-2.57-1.56-4h24.44c-.26,1.43-.77,2.76-1.53,4-.76,1.23-1.68,2.31-2.76,3.22-1.08.91-2.3,1.61-3.64,2.11-1.34.5-2.77.75-4.29.75h0ZM11.8,84.81c2.04-3.9,3.56-7.97,4.58-12.22,1.02-4.25,1.53-8.58,1.53-13v-14.62c0-3.21.42-6.3,1.27-9.29.84-2.99,2.03-5.77,3.54-8.35,1.52-2.58,3.34-4.93,5.46-7.05,2.12-2.12,4.48-3.94,7.08-5.46,2.6-1.52,5.38-2.69,8.35-3.51,2.97-.82,6.05-1.23,9.26-1.23,4.85,0,9.39.91,13.62,2.73,4.22,1.82,7.92,4.31,11.08,7.47,3.16,3.16,5.65,6.86,7.47,11.08,1.82,4.22,2.73,8.76,2.73,13.62v14.56c0,4.46.51,8.82,1.53,13.06,1.02,4.25,2.57,8.32,4.65,12.22H11.8Z"/>
  </g>
</svg>