<?xml version="1.0" encoding="UTF-8"?>
<svg id="Layer_2" data-name="Layer 2" xmlns="http://www.w3.org/2000/svg" viewBox="0 0 108.23 108.23">
  <g id="Layer_1-2" data-name="Layer 1">
    <path d="M49.16,54.75l17.23,9.85c.77.42,1.37,1.02,1.82,1.79s.66,1.59.66,2.48-.22,1.71-.66,2.48c-.44.77-1.05,1.36-1.82,1.79l-17.23,9.85c-.73.42-1.54.63-2.42.63-1.34,0-2.5-.48-3.46-1.44s-1.44-2.11-1.44-3.46v-19.71c0-1.34.48-2.5,1.44-3.46s2.11-1.44,3.46-1.44c.88,0,1.69.21,2.42.63h0ZM54.46,0c4.84,0,8.47,0,10.89.03s5.21.11,8.36.26c3.15.15,5.84.38,8.07.69,3.84.5,7.21,1.34,10.11,2.54,2.9,1.19,5.47,2.9,7.69,5.13s3.94,4.79,5.13,7.69c1.19,2.9,2.04,6.27,2.54,10.11.31,2.23.54,4.92.69,8.07.15,3.15.24,5.94.26,8.36s.03,6.05.03,10.89v.69c0,4.84,0,8.47-.03,10.89-.02,2.42-.11,5.21-.26,8.36-.15,3.15-.38,5.84-.69,8.07-.5,3.84-1.34,7.21-2.54,10.11-1.19,2.9-2.9,5.47-5.13,7.69-2.23,2.23-4.79,3.94-7.69,5.13-2.9,1.19-6.27,2.04-10.11,2.54-2.23.31-4.92.54-8.07.69-3.15.15-5.94.24-8.36.26-2.42.02-6.05.03-10.89.03h-.69c-4.84,0-8.47,0-10.89-.03-2.42-.02-5.21-.11-8.36-.26-3.15-.15-5.84-.38-8.07-.69-3.84-.5-7.21-1.34-10.11-2.54-2.9-1.19-5.47-2.9-7.69-5.13-2.23-2.23-3.94-4.79-5.13-7.69-1.19-2.9-2.04-6.27-2.54-10.11-.31-2.23-.54-4.92-.69-8.07-.15-3.15-.24-5.94-.26-8.36-.02-2.42-.03-6.05-.03-10.89v-.69c0-4.84,0-8.47.03-10.89.02-2.42.11-5.21.26-8.36.15-3.15.38-5.84.69-8.07.5-3.84,1.34-7.21,2.54-10.11,1.19-2.9,2.9-5.47,5.13-7.69,2.23-2.23,4.79-3.94,7.69-5.13,2.9-1.19,6.27-2.04,10.11-2.54,2.23-.31,4.92-.54,8.07-.69,3.15-.15,5.94-.24,8.36-.26s6.05-.03,10.89-.03h.69ZM15.62,15.62c-1.31,1.31-2.35,2.91-3.14,4.81s-1.37,4.35-1.76,7.35l-.23,1.73h24.49l-6.28-18.9-.92.12c-3,.38-5.45.97-7.35,1.76s-3.51,1.83-4.81,3.14h0ZM45.35,29.51h24.09l-6.57-19.65h-8.76c-7.3,0-12.39.04-15.27.12l6.51,19.54h0ZM76.13,39.36H9.97c-.08,2.8-.12,7.72-.12,14.75,0,4.88,0,8.54.03,10.98.02,2.44.1,5.11.23,8.01.13,2.9.34,5.35.61,7.35.38,3,.97,5.45,1.76,7.35.79,1.9,1.83,3.51,3.14,4.81s2.91,2.35,4.81,3.14c1.9.79,4.35,1.37,7.35,1.76,2,.27,4.45.47,7.35.61,2.9.13,5.57.21,8.01.23,2.44.02,6.1.03,10.98.03s8.54,0,10.98-.03c2.44-.02,5.11-.1,8.01-.23,2.9-.13,5.35-.34,7.35-.61,3-.38,5.45-.97,7.35-1.76,1.9-.79,3.51-1.83,4.81-3.14,1.31-1.31,2.35-2.91,3.14-4.81.79-1.9,1.37-4.35,1.76-7.35.27-2,.47-4.45.61-7.35.13-2.9.21-5.57.23-8.01.02-2.44.03-6.1.03-10.98,0-7.03-.04-11.95-.12-14.75h-22.13ZM79.76,29.51h17.98c-.08-.42-.15-1-.23-1.73-.38-3-.97-5.45-1.76-7.35s-1.83-3.51-3.14-4.81c-1.31-1.31-2.91-2.35-4.81-3.14s-4.35-1.37-7.35-1.76c-2.04-.27-4.42-.48-7.15-.63l6.45,19.42h0Z"/>
  </g>
</svg>