<?xml version="1.0" encoding="UTF-8"?>
<svg id="Layer_2" data-name="Layer 2" xmlns="http://www.w3.org/2000/svg" viewBox="0 0 111.9 111.9">
  <g id="Layer_1-2" data-name="Layer 1">
    <path d="M50.88,0c4.61,0,9.11.62,13.5,1.85,4.39,1.23,8.44,2.94,12.16,5.12,3.71,2.18,7.14,4.84,10.28,7.95,3.14,3.12,5.8,6.53,7.98,10.25,2.18,3.71,3.88,7.78,5.09,12.18,1.21,4.41,1.82,8.92,1.82,13.53v.12c0,5.72-.93,11.23-2.8,16.53s-4.49,10.14-7.87,14.51l18.95,19.01c1.27,1.23,1.91,2.72,1.91,4.47s-.63,3.25-1.88,4.5-2.75,1.88-4.5,1.88-3.24-.64-4.47-1.91c-.83-.79-1.91-1.85-3.22-3.16-1.31-1.31-3.36-3.35-6.14-6.11-2.78-2.76-5.08-5.06-6.91-6.91l-2.74-2.77c-4.37,3.38-9.21,6-14.51,7.87-5.3,1.87-10.83,2.8-16.59,2.8h-.06c-4.61,0-9.12-.61-13.53-1.82-4.41-1.21-8.47-2.91-12.18-5.09-3.71-2.18-7.13-4.85-10.25-7.98-3.12-3.14-5.77-6.56-7.95-10.28-2.18-3.71-3.89-7.77-5.12-12.16-1.23-4.39-1.85-8.89-1.85-13.5s.62-9.12,1.85-13.53c1.23-4.41,2.94-8.47,5.12-12.18,2.18-3.71,4.84-7.13,7.95-10.25,3.12-3.12,6.53-5.77,10.25-7.95,3.71-2.18,7.78-3.89,12.18-5.12,4.41-1.23,8.92-1.85,13.53-1.85h0ZM12.75,50.88c0,5.16,1,10.1,3.01,14.81,2.01,4.71,4.72,8.76,8.13,12.16,3.42,3.4,7.48,6.11,12.18,8.13,4.71,2.03,9.64,3.04,14.81,3.04s10.1-1.01,14.81-3.04c4.71-2.03,8.76-4.74,12.16-8.13,3.4-3.4,6.11-7.45,8.13-12.16s3.04-9.64,3.04-14.81-1.01-10.1-3.04-14.81c-2.03-4.71-4.74-8.77-8.13-12.18-3.4-3.42-7.45-6.13-12.16-8.13-4.71-2.01-9.64-3.01-14.81-3.01s-10.1,1-14.81,3.01c-4.71,2.01-8.77,4.72-12.18,8.13-3.42,3.42-6.13,7.48-8.13,12.18-2.01,4.71-3.01,9.64-3.01,14.81h0Z"/>
  </g>
</svg>