<?xml version="1.0" encoding="UTF-8"?>
<svg id="Layer_2" data-name="Layer 2" xmlns="http://www.w3.org/2000/svg" viewBox="0 0 119.5 108.94">
  <g id="Layer_1-2" data-name="Layer 1">
    <path d="M20.88,0h77.83c2.6,0,5.07.45,7.42,1.34,2.35.89,4.39,2.1,6.12,3.62s3.19,3.33,4.41,5.42,2.05,4.26,2.49,6.51.47,4.62.06,7.12-1.26,4.88-2.56,7.15l-38.88,67.36c-1.5,2.6-3.4,4.74-5.69,6.42-2.29,1.68-4.7,2.83-7.21,3.44-2.51.61-5.11.73-7.79.37-2.68-.37-5.15-1.16-7.42-2.37-2.27-1.22-4.3-2.94-6.08-5.17-1.78-2.23-3.06-4.81-3.83-7.73-.37-1.3-.83-3.01-1.4-5.14-.57-2.13-1.45-5.45-2.65-9.95-1.2-4.5-2.19-8.25-2.98-11.23l-1.19-4.47c-.49-1.83-1.4-3.41-2.74-4.75L6.22,35.47c-2.11-2.11-3.69-4.49-4.75-7.15S-.07,23.04,0,20.45c.08-2.6.64-5.14,1.67-7.64s2.43-4.68,4.2-6.54c1.76-1.87,3.96-3.38,6.57-4.53,2.62-1.16,5.43-1.73,8.43-1.73h0ZM13.52,28.11l22.64,22.45c.04.08.1.16.18.24l26.77-15.52c.81-.45,1.68-.67,2.62-.67,1.46,0,2.7.51,3.71,1.52,1.01,1.01,1.52,2.23,1.52,3.65,0,.93-.24,1.81-.73,2.62s-1.12,1.44-1.89,1.89c-1.14.65-2.64,1.51-4.5,2.59-1.87,1.08-4.75,2.74-8.64,4.99-3.89,2.25-7.15,4.13-9.77,5.63l-3.92,2.25c.04.08.06.16.06.24l8.21,30.85c.57,2.15,1.67,3.89,3.32,5.23,1.64,1.34,3.42,2.14,5.32,2.4,1.91.26,3.83-.04,5.78-.91,1.95-.87,3.47-2.28,4.56-4.23L107.65,25.92c.81-1.34,1.28-2.76,1.4-4.26.12-1.5-.05-2.91-.52-4.23-.47-1.32-1.16-2.51-2.07-3.59-.91-1.08-2.05-1.93-3.41-2.56-1.36-.63-2.81-.94-4.35-.94H20.88c-2.27,0-4.27.63-5.99,1.89s-2.95,2.78-3.68,4.56-.92,3.72-.58,5.81c.34,2.09,1.31,3.92,2.89,5.51h0Z"/>
  </g>
</svg>