<?xml version="1.0" encoding="UTF-8"?>
<svg id="Layer_2" data-name="Layer 2" xmlns="http://www.w3.org/2000/svg" viewBox="0 0 120.47 101.36">
  <g id="Layer_1-2" data-name="Layer 1">
    <path d="M57.16,12.72c0-1.9.35-3.61,1.06-5.14.71-1.53,1.64-2.86,2.79-3.98,1.15-1.12,2.48-1.99,3.98-2.61S68.04.04,69.64,0c1.6-.03,3.2.24,4.78.83,1.59.59,3.03,1.55,4.34,2.89l37.99,37.99c1.24,1.24,2.17,2.64,2.79,4.21.62,1.57.93,3.16.93,4.78s-.31,3.21-.93,4.78-1.55,2.97-2.79,4.21l-37.99,37.94c-1.31,1.34-2.76,2.31-4.34,2.89-1.59.59-3.18.86-4.78.83-1.6-.03-3.15-.36-4.65-.98s-2.83-1.49-3.98-2.61c-1.15-1.12-2.08-2.45-2.79-4.01s-1.06-3.26-1.06-5.12v-14.94h-.47c-6.55,0-12.15.53-16.8,1.6-4.65,1.07-8.67,2.58-12.04,4.55-3.34,1.93-6.23,4.32-8.66,7.18-2.43,2.86-4.66,6.22-6.69,10.08-.41.79-.91,1.44-1.5,1.94-.59.5-1.21.88-1.86,1.14-.65.26-1.33.4-2.02.44-.69.03-1.33-.02-1.91-.16-.59-.1-1.19-.32-1.81-.65-.62-.33-1.18-.76-1.68-1.29-.5-.53-.91-1.16-1.24-1.89-.33-.72-.49-1.55-.49-2.48,0-7.03.72-13.79,2.17-20.29,1.45-6.49,3.69-12.52,6.72-18.06h0c2.31-4.2,5.04-8.03,8.19-11.47,3.15-3.45,6.73-6.39,10.72-8.84,4-2.45,8.41-4.34,13.23-5.69s10.04-2.02,15.66-2.02h.47v-15.09h0ZM72.1,10.49c-.52-.48-1.09-.78-1.73-.88s-1.23-.04-1.78.18c-.55.22-1.02.59-1.4,1.09-.38.5-.57,1.11-.57,1.83v19.85c0,.65-.12,1.28-.36,1.86s-.58,1.09-1.01,1.52c-.43.43-.93.78-1.5,1.03-.57.26-1.18.39-1.83.39h-5.22c-4.72,0-9.07.54-13.05,1.63s-7.61,2.64-10.91,4.65-6.22,4.44-8.79,7.26-4.8,5.98-6.69,9.46c-3.55,6.62-5.89,14.14-7.03,22.59,1.76-2.27,3.7-4.35,5.81-6.23,2.12-1.88,4.47-3.57,7.05-5.09,4.34-2.52,9.25-4.39,14.73-5.63,5.48-1.24,11.77-1.86,18.86-1.86h5.22c.65,0,1.27.12,1.83.36s1.07.58,1.5,1.01c.43.43.77.94,1.01,1.52.24.59.36,1.21.36,1.86v19.74c0,.72.19,1.34.57,1.83s.84.86,1.4,1.09,1.15.29,1.78.21c.64-.09,1.21-.39,1.73-.9l37.94-37.94c.62-.62.93-1.37.93-2.25s-.31-1.63-.93-2.25L72.1,10.49h0Z"/>
  </g>
</svg>