<?xml version="1.0" encoding="UTF-8"?>
<svg id="Layer_2" data-name="Layer 2" xmlns="http://www.w3.org/2000/svg" viewBox="0 0 103.92 103.92">
  <g id="Layer_1-2" data-name="Layer 1">
    <path d="M34.01,3.37c.6-1.02,1.41-1.83,2.45-2.45,1.04-.61,2.17-.92,3.4-.92s2.32.3,3.37.89l.89.53c.6.35,1.33.77,2.18,1.26l2.58,1.47c.86.49,1.59.91,2.18,1.26l.89.53L60.7.89c1.05-.6,2.18-.89,3.37-.89s2.36.31,3.4.92c1.04.61,1.85,1.43,2.45,2.45l4.69,8.16h11.06c1.86,0,3.45.66,4.76,1.97,1.32,1.32,1.97,2.9,1.97,4.76v11l8.16,4.74c1.02.6,1.83,1.41,2.45,2.45.61,1.04.92,2.17.92,3.4s-.3,2.32-.89,3.37l-1.26,2.18c-.84,1.46-1.68,2.9-2.53,4.34l-1.26,2.21,5.05,8.74c.6,1.05.89,2.18.89,3.37s-.31,2.36-.92,3.4-1.43,1.85-2.45,2.45l-8.16,4.69v11.06c0,1.86-.66,3.45-1.97,4.76-1.32,1.32-2.9,1.97-4.76,1.97h-11l-4.74,8.16c-.6,1.02-1.41,1.83-2.45,2.45-1.04.61-2.17.92-3.4.92s-2.32-.3-3.37-.89l-.89-.53c-.6-.35-1.33-.77-2.18-1.26l-2.58-1.47c-.86-.49-1.59-.91-2.18-1.26l-.89-.53-8.74,5.05c-1.05.6-2.18.89-3.37.89s-2.36-.31-3.4-.92c-1.04-.61-1.85-1.43-2.45-2.45l-4.74-8.16h-11c-1.86,0-3.45-.66-4.76-1.97s-1.97-2.9-1.97-4.76v-11l-8.16-4.74c-1.02-.6-1.83-1.41-2.45-2.45-.61-1.04-.92-2.17-.92-3.4s.3-2.32.89-3.37l.53-.89c.35-.6.77-1.32,1.26-2.18l1.47-2.58c.49-.86.91-1.59,1.26-2.18l.53-.89L.89,43.22c-.6-1.05-.89-2.18-.89-3.37s.31-2.36.92-3.4c.61-1.04,1.43-1.85,2.45-2.45l8.16-4.74v-11c0-1.86.66-3.45,1.97-4.76,1.32-1.32,2.9-1.97,4.76-1.97h11l4.74-8.16h0ZM77.6,43.91c.84-.88,1.26-1.91,1.26-3.11,0-1.26-.44-2.33-1.32-3.21-.88-.88-1.93-1.32-3.16-1.32s-2.28.42-3.16,1.26l-24.43,24.48c-.42.42-.95.63-1.58.63s-1.16-.21-1.58-.63l-10.95-11c-.88-.84-1.93-1.26-3.16-1.26s-2.28.44-3.16,1.32-1.32,1.95-1.32,3.21c0,1.19.42,2.23,1.26,3.11l2.74,2.74,5.48,5.48,2.74,2.74c2.21,2.21,4.86,3.32,7.95,3.32s5.74-1.11,7.95-3.32l6.11-6.11,12.21-12.21,6.11-6.11h0Z"/>
  </g>
</svg>