<?xml version="1.0" encoding="UTF-8"?>
<svg id="Layer_1" xmlns="http://www.w3.org/2000/svg" version="1.1" viewBox="0 0 32 32">
  <!-- Generator: Adobe Illustrator 30.1.0, SVG Export Plug-In . SVG Version: 2.1.1 Build 136)  -->
  <path d="M12.6,5.8c.1-.2.3-.4.5-.5.2-.1.5-.2.7-.2s.5,0,.7.2h.2c.1.2.3.3.5.4l.5.3c.2.1.3.2.5.3h.2c0,.1,1.8-.9,1.8-.9.2-.1.5-.2.7-.2s.5,0,.7.2c.2.1.4.3.5.5l1,1.7h2.3c.4,0,.7.1,1,.4.3.3.4.6.4,1v2.3l1.7,1c.2.1.4.3.5.5.1.2.2.5.2.7s0,.5-.2.7l-.3.5c-.2.3-.4.6-.5.9l-.3.5,1.1,1.8c.1.2.2.5.2.7s0,.5-.2.7-.3.4-.5.5l-1.7,1v2.3c0,.4-.1.7-.4,1-.3.3-.6.4-1,.4h-2.3l-1,1.7c-.1.2-.3.4-.5.5-.2.1-.5.2-.7.2s-.5,0-.7-.2h-.2c-.1-.2-.3-.3-.5-.4l-.5-.3c-.2-.1-.3-.2-.5-.3h-.2c0-.1-1.8.9-1.8.9-.2.1-.5.2-.7.2s-.5,0-.7-.2c-.2-.1-.4-.3-.5-.5l-1-1.7h-2.3c-.4,0-.7-.1-1-.4s-.4-.6-.4-1v-2.3l-1.7-1c-.2-.1-.4-.3-.5-.5-.1-.2-.2-.5-.2-.7s0-.5.2-.7v-.2c.2-.1.3-.3.4-.5l.3-.5c.1-.2.2-.3.3-.5v-.2c.1,0-.9-1.8-.9-1.8-.1-.2-.2-.5-.2-.7s0-.5.2-.7c.1-.2.3-.4.5-.5l1.7-1v-2.3c0-.4.1-.7.4-1,.3-.3.6-.4,1-.4h2.3l1-1.7h0ZM21.6,14.3c.2-.2.3-.4.3-.6s0-.5-.3-.7c-.2-.2-.4-.3-.7-.3s-.5,0-.7.3l-5.1,5.1c0,0-.2.1-.3.1s-.2,0-.3-.1l-2.3-2.3c-.2-.2-.4-.3-.7-.3s-.5,0-.7.3-.3.4-.3.7,0,.5.3.6l.6.6,1.1,1.1.6.6c.5.5,1,.7,1.7.7s1.2-.2,1.7-.7l1.3-1.3,2.5-2.5,1.3-1.3h0Z"/>
</svg>