<?xml version="1.0" encoding="UTF-8"?>
<svg id="Layer_1" xmlns="http://www.w3.org/2000/svg" version="1.1" viewBox="0 0 32 32">
  <!-- Generator: Adobe Illustrator 30.1.0, SVG Export Plug-In . SVG Version: 2.1.1 Build 136)  -->
  <path d="M25.8,12.8l-7-6.7c-1.5-1.4-4-1.4-5.5,0l-7,6.7c-.8.8-1.2,1.8-1.2,2.9v8.3c0,1.7,1.3,3,3,3h5c.6,0,1-.4,1-1v-7c0-1.1.9-2,2-2s2,.9,2,2v7c0,.6.4,1,1,1h5c1.7,0,3-1.3,3-3v-8.3c0-1.1-.4-2.1-1.2-2.9ZM25,24c0,.6-.4,1-1,1h-4v-6c0-2.2-1.8-4-4-4s-4,1.8-4,4v6s-4,0-4,0c-.6,0-1-.4-1-1v-8.3c0-.5.2-1.1.6-1.4l7-6.7c.7-.7,2-.7,2.8,0l7,6.7c.4.4.6.9.6,1.4,0,0,0,8.3,0,8.3Z"/>
</svg>