<?xml version="1.0" encoding="UTF-8"?>
<svg id="Layer_1" xmlns="http://www.w3.org/2000/svg" version="1.1" viewBox="0 0 32 32">
  <!-- Generator: Adobe Illustrator 30.1.0, SVG Export Plug-In . SVG Version: 2.1.1 Build 136)  -->
  <path d="M20.8,7.9c2.7.2,4.8,2.5,4.7,5.2,0,3.1-2.6,5-5.2,7.2-2.5,2.2-3.9,3.5-4.3,3.8-.5-.3-2.1-1.8-4.3-3.8-2.6-2.3-5.2-4.2-5.2-7.2-.1-2.7,2-5.1,4.7-5.2,1.5,0,2.9.7,3.7,1.9.8,1.2,1,1.8,1.1,1.8s.3-.6,1.1-1.8c.8-1.2,2.2-2,3.7-1.9M20.8,5.9c-1.8,0-3.6.7-4.8,2.1-1.2-1.4-2.9-2.2-4.8-2.1-3.8.1-6.8,3.4-6.7,7.2,0,3.6,2.6,5.8,5,8,.3.2.6.5.8.8l1,.9c1.1,1.1,2.3,2.1,3.5,3,.7.4,1.5.4,2.2,0,1.3-1,2.5-2,3.6-3.1l.9-.8c.3-.3.6-.5.9-.8,2.3-2,5-4.3,5-7.9.1-3.8-2.9-7.1-6.7-7.2Z"/>
</svg>