<?xml version="1.0" encoding="UTF-8"?>
<svg id="Layer_1" xmlns="http://www.w3.org/2000/svg" version="1.1" viewBox="0 0 32 32">
  <!-- Generator: Adobe Illustrator 30.1.0, SVG Export Plug-In . SVG Version: 2.1.1 Build 136)  -->
  <path d="M26.8,11.8c0-1.4-.3-2.1-.5-2.7-.3-.7-.7-1.4-1.3-1.9-.6-.6-1.2-1-1.9-1.3-.5-.2-1.3-.4-2.7-.5-1.2,0-1.6,0-4.5,0s-3.3,0-4.5,0c-1.4,0-2.1.3-2.7.5-.8.3-1.4.7-1.9,1.3-.6.5-1,1.2-1.3,1.9-.2.5-.4,1.3-.5,2.7,0,1.2,0,1.5,0,4.5s0,3.3,0,4.5c0,1.4.3,2.1.5,2.7.3.8.7,1.4,1.3,2s1.2,1,1.9,1.3c.5.2,1.3.5,2.7.5,1.2,0,1.6,0,4.5,0s3.3,0,4.5,0c1.4,0,2.1-.3,2.7-.5.7-.3,1.4-.7,1.9-1.3.6-.5,1-1.2,1.3-2,.2-.5.4-1.3.5-2.7,0-1.2,0-1.6,0-4.5s0-3.3,0-4.5ZM24.8,20.8c0,1.1-.2,1.6-.4,2-.2.5-.4.9-.8,1.3-.4.4-.8.6-1.3.8-.4.1-1,.3-2,.4-1.2,0-1.5,0-4.5,0s-3.3,0-4.4,0c-1.1,0-1.7-.2-2-.4-.5-.2-.9-.4-1.2-.8-.4-.3-.6-.8-.8-1.2-.2-.4-.3-1-.4-2,0-1.2,0-1.5,0-4.4s0-3.3,0-4.4c0-1.1.2-1.6.4-2,.2-.5.4-.9.8-1.3.4-.4.8-.6,1.3-.8.4-.2,1-.3,2-.4,1.2,0,1.5,0,4.4,0s3.3,0,4.4,0c1.1,0,1.7.2,2,.4.5.2.9.4,1.3.8.4.4.6.8.8,1.3.1.4.3,1,.4,2,0,1.2,0,1.5,0,4.4s0,3.3,0,4.4ZM20.3,14l-5.2-3c-.8-.5-1.9-.5-2.8,0-.8.5-1.4,1.4-1.4,2.4v6c0,1,.5,1.9,1.4,2.4.4.2.9.4,1.4.4s.9-.1,1.4-.4l5.2-3c.9-.5,1.4-1.4,1.4-2.4s-.5-1.9-1.4-2.4ZM19.3,17l-5.2,3c-.2.1-.5.1-.7,0-.2-.1-.4-.4-.4-.6v-6c0-.3.1-.5.4-.6.2-.1.5-.1.7,0l5.2,3c.4.2.4.5.4.6s0,.4-.4.6Z"/>
</svg>