<?xml version="1.0" encoding="UTF-8"?>
<svg id="Layer_1" xmlns="http://www.w3.org/2000/svg" version="1.1" viewBox="0 0 32 32">
  <!-- Generator: Adobe Illustrator 30.1.0, SVG Export Plug-In . SVG Version: 2.1.1 Build 136)  -->
  <g id="_x30_Xcv4q">
    <g>
      <path d="M12.1,24.3c-.6-.6-.6-1.4,0-2l4.2-4.2c.5-.5,1.3-.4,1.7,0s.6,1.2,0,1.8l-2.1,2.2c1.7,0,3,0,4.7,0s2.8-1.1,2.8-2.5v-6.1c0-.7.7-1.2,1.3-1.2s1.3.5,1.3,1.2v5.9c0,2.6-2.2,5-4.7,5h-5.3c0,.1,2,2.2,2,2.2.5.5.6,1.2,0,1.8s-1.3.6-1.9,0l-4.1-4.1Z"/>
      <path d="M9.7,10c-1.3,0-2.5,1.4-2.5,2.7v5.8c0,.7-.6,1.2-1.2,1.3s-1.3-.5-1.3-1.3v-6.1c0-2.5,2.3-4.8,4.8-4.8h5.2c0-.1-1.9-2.1-1.9-2.1-.5-.5-.6-1.2-.2-1.7s1.3-.8,1.8-.3l4.4,4.4c.4.4.5,1.2,0,1.7l-4.3,4.3c-.5.5-1.3.5-1.8,0s-.4-1.3.1-1.8l1.9-2c-1.8,0-3.2,0-5.1,0Z"/>
    </g>
  </g>
</svg>