<?xml version="1.0" encoding="UTF-8"?>
<svg id="Layer_1" xmlns="http://www.w3.org/2000/svg" version="1.1" viewBox="0 0 32 32">
  <!-- Generator: Adobe Illustrator 30.1.0, SVG Export Plug-In . SVG Version: 2.1.1 Build 136)  -->
  <path d="M26.9,11.5c0-1.4-.3-2.1-.5-2.7-.3-.7-.7-1.4-1.3-2-.5-.6-1.2-1-2-1.3-.5-.2-1.3-.5-2.7-.5-1.2,0-1.6,0-4.5,0s-3.3,0-4.5,0c-1.4,0-2.1.3-2.7.5-.8.3-1.4.7-2,1.3s-1,1.2-1.3,2c-.2.5-.5,1.3-.5,2.7,0,1.2,0,1.6,0,4.5s0,3.3,0,4.5c0,1.4.3,2.1.5,2.7.3.8.7,1.4,1.3,2,.6.6,1.2,1,2,1.3.5.2,1.3.5,2.7.5,1.2,0,1.6,0,4.5,0s3.3,0,4.5,0c1.4,0,2.1-.3,2.7-.5.7-.3,1.4-.7,2-1.3.6-.6,1-1.2,1.3-2,.2-.5.5-1.3.5-2.7,0-1.2,0-1.6,0-4.5s0-3.3,0-4.5ZM19.9,17.5l-5.2,3c-1.2.7-2.6-.2-2.6-1.5v-6c0-1.3,1.5-2.2,2.6-1.5l5.2,3c1.2.7,1.2,2.4,0,3h0Z"/>
</svg>