<?xml version="1.0" encoding="UTF-8"?>
<svg id="Layer_2" data-name="Layer 2" xmlns="http://www.w3.org/2000/svg" viewBox="0 0 110.42 110.14">
  <g id="Layer_1-2" data-name="Layer 1">
    <g id="FurgUG">
      <g>
        <path d="M83.78,69.44c-4.8-6.66,5.72-10.73,10-18.03,4.79-8.16,5.41-17.18.84-25.68-3.6-6.69-10.92-12.12-20.04-13.15-9.53-1.08-18.32,4.46-24.5,11.78-2.2,2.61-5.66,3.95-8.65,2.41-2.07-1.06-5.01-4.81-3.03-7.71C51.83-.67,77.89-6.79,96.6,8.86c15.69,13.13,18.53,36.41,5.89,51.78-3.16,3.84-6.36,7.41-10.05,10.46-2.89,2.4-6.77.96-8.66-1.66Z"/>
        <path d="M72.15,90.04c-5.98,10.14-16.2,17.28-27.39,19.42-17.09,3.27-33.05-5.44-40.88-20.82-6.84-13.43-4.33-29.3,5.17-40.71,2.51-3.01,5.14-5.77,7.91-8.28,3.06-2.78,6.67-2.16,9.17.35,8.18,8.21-12.79,12.2-13.6,31.07-.56,13.11,8.97,24.06,22.05,26.45,9.65,1.76,18.91-3.9,25.22-11.33,2.02-2.38,4.83-3.9,7.69-3.53,2.25.29,6.33,4.53,4.65,7.39Z"/>
        <path d="M43.54,75.56c-3.19,3.2-6.82,4.1-10,1-2.51-2.44-2.7-6.22.45-9.35l33.42-33.35c2.79-2.79,6.5-2.84,9.15-.46,2.79,2.52,2.97,6.1-.18,9.26l-32.83,32.89Z"/>
      </g>
    </g>
  </g>
</svg>