<?xml version="1.0" encoding="UTF-8"?>
<svg id="Layer_2" data-name="Layer 2" xmlns="http://www.w3.org/2000/svg" viewBox="0 0 7.53 7.73">
  <defs>
    <style>
      .cls-1 {
        fill: rgba(255, 255, 255, .75);
        fill-rule: evenodd;
      }
    </style>
  </defs>
  <g id="Layer_1-2" data-name="Layer 1">
    <path class="cls-1" d="M6.78,5.75h-2.07l-.95,1.16-.95-1.16H.75V.75h6.02v5ZM6.9,6.5h-1.84l-.82,1c-.25.31-.72.31-.97,0l-.82-1H.62C.28,6.5,0,6.22,0,5.87V.62c.01-.34.29-.62.64-.62h6.25c.34,0,.62.28.63.62v5.25c.01.35-.27.63-.61.63ZM2.51,3c-.14,0-.25.11-.25.25v.25c0,.14.11.25.25.25h2.5c.14,0,.25-.11.25-.25v-.25c0-.14-.11-.25-.25-.25h-2.5Z"/>
  </g>
</svg>