<?xml version="1.0" encoding="UTF-8"?>
<svg id="Layer_2" data-name="Layer 2" xmlns="http://www.w3.org/2000/svg" viewBox="0 0 8.8 7.87">
  <defs>
    <style>
      .cls-1 {
        fill: #fff;
        fill-rule: evenodd;
      }
    </style>
  </defs>
  <g id="Layer_1-2" data-name="Layer 1">
    <path class="cls-1" d="M4.64.09c-.14-.11-.34-.11-.48,0L.14,3.39c-.12.1-.17.27-.12.42.05.15.19.25.35.25h.58l.3,3.26c.03.32.3.57.62.57h1.9c.14,0,.25-.11.25-.25v-2.42c0-.14.11-.25.25-.25h.25c.14,0,.25.11.25.25v2.42c0,.14.11.25.25.25h1.9c.32,0,.59-.25.62-.57l.3-3.26h.58c.16,0,.3-.1.35-.25.05-.15,0-.32-.12-.42L4.64.09Z"/>
  </g>
</svg>