<?xml version="1.0" encoding="UTF-8"?>
<svg id="Layer_2" data-name="Layer 2" xmlns="http://www.w3.org/2000/svg" viewBox="0 0 13.81 8.99">
  <defs>
    <style>
      .cls-1 {
        fill: #161823;
      }

      .cls-1, .cls-2, .cls-3 {
        fill-rule: evenodd;
      }

      .cls-2 {
        fill: #20d5ec;
      }

      .cls-3 {
        fill: #fa2d6c;
      }

      .cls-4 {
        fill: #fff;
      }
    </style>
  </defs>
  <g id="Layer_1-2" data-name="Layer 1">
    <g>
      <path class="cls-3" d="M2.41,4.11c0-1.44,0-2.16.28-2.71.25-.48.64-.88,1.12-1.12.55-.28,1.27-.28,2.71-.28h3.18c1.44,0,2.16,0,2.71.28.48.25.88.64,1.12,1.12.28.55.28,1.27.28,2.71v.77c0,1.44,0,2.16-.28,2.71-.25.48-.64.88-1.12,1.12-.55.28-1.27.28-2.71.28h-3.18c-1.44,0-2.16,0-2.71-.28-.48-.25-.88-.64-1.12-1.12-.28-.55-.28-1.27-.28-2.71v-.77Z"/>
      <path class="cls-2" d="M0,4.11C0,2.67,0,1.95.28,1.4c.25-.48.64-.88,1.12-1.12.55-.28,1.27-.28,2.71-.28h3.18c1.44,0,2.16,0,2.71.28.48.25.88.64,1.12,1.12.28.55.28,1.27.28,2.71v.77c0,1.44,0,2.16-.28,2.71-.25.48-.64.88-1.12,1.12-.55.28-1.27.28-2.71.28h-3.18c-1.44,0-2.16,0-2.71-.28-.48-.25-.88-.64-1.12-1.12-.28-.55-.28-1.27-.28-2.71v-.77Z"/>
      <rect class="cls-4" x="1.12" y="0" width="11.56" height="8.99" rx="4.5" ry="4.5"/>
      <path class="cls-1" d="M6.58,2.49c-.09,0-.16.07-.16.16v1.53h-1.53c-.09,0-.16.07-.16.16v.48c0,.09.07.16.16.16h1.53v1.53c0,.09.07.16.16.16h.48c.09,0,.16-.07.16-.16v-1.53h1.53c.09,0,.16-.07.16-.16v-.48c0-.09-.07-.16-.16-.16h-1.53v-1.53c0-.09-.07-.16-.16-.16h-.48Z"/>
    </g>
  </g>
</svg>