<?xml version="1.0" encoding="UTF-8"?>
<svg id="Layer_2" data-name="Layer 2" xmlns="http://www.w3.org/2000/svg" viewBox="0 0 8.25 8.25">
  <defs>
    <style>
      .cls-1 {
        fill: rgba(255, 255, 255, .75);
        fill-rule: evenodd;
      }
    </style>
  </defs>
  <g id="Layer_1-2" data-name="Layer 1">
    <g>
      <path class="cls-1" d="M4.13,7.48c1.85,0,3.35-1.5,3.35-3.35S5.98.77,4.13.77.77,2.27.77,4.13s1.5,3.35,3.35,3.35ZM8.25,4.13c0,2.28-1.85,4.13-4.13,4.13S0,6.4,0,4.13,1.85,0,4.13,0s4.13,1.85,4.13,4.13Z"/>
      <path class="cls-1" d="M4.91,4.92c.12-.07.2-.19.23-.33l.46-2.33c.03-.13-.11-.22-.22-.16l-2.03,1.23c-.12.07-.2.19-.23.33l-.46,2.33c-.03.13.11.22.22.16l2.03-1.23ZM3.65,4.81l.78-.47.18-.89-.78.47-.18.89Z"/>
    </g>
  </g>
</svg>