<?xml version="1.0" encoding="UTF-8"?>
<svg id="Layer_2" data-name="Layer 2" xmlns="http://www.w3.org/2000/svg" viewBox="0 0 6.57 7.65">
  <defs>
    <style>
      .cls-1 {
        fill: rgba(255, 255, 255, .75);
        fill-rule: evenodd;
      }
    </style>
  </defs>
  <g id="Layer_1-2" data-name="Layer 1">
    <path class="cls-1" d="M3.28.75c-.76,0-1.38.62-1.38,1.38s.62,1.38,1.38,1.38,1.38-.62,1.38-1.38-.62-1.38-1.38-1.38ZM1.16,2.12C1.16.95,2.11,0,3.28,0s2.12.95,2.12,2.12-.95,2.12-2.12,2.12-2.12-.95-2.12-2.12ZM3.28,5.5c-1.21,0-2.24.82-2.54,1.94-.04.13-.16.23-.3.2l-.25-.04c-.14-.02-.23-.15-.2-.29.36-1.47,1.69-2.57,3.28-2.57s2.92,1.09,3.28,2.57c.03.13-.06.26-.2.29l-.25.04c-.14.02-.26-.07-.3-.2-.3-1.12-1.32-1.94-2.54-1.94Z"/>
  </g>
</svg>