<?xml version="1.0" encoding="UTF-8"?>
<svg id="Layer_2" data-name="Layer 2" xmlns="http://www.w3.org/2000/svg" viewBox="0 0 10.35 10.04">
  <defs>
    <style>
      .cls-1 {
        fill: rgba(255, 255, 255, .9);
        fill-rule: evenodd;
      }
    </style>
  </defs>
  <g id="Layer_1-2" data-name="Layer 1">
    <path class="cls-1" d="M8.73,7.93c1.02-1.03,1.62-2.1,1.62-3.35,0-2.53-2.32-4.58-5.18-4.58S0,2.05,0,4.58s2.39,4.27,5.25,4.27v.84c0,.27.28.44.51.31.73-.4,2.08-1.19,2.96-2.07h0ZM2.66,3.96c.41,0,.74.33.74.73,0,.41-.33.74-.74.74h0c-.41,0-.74-.33-.74-.74,0-.41.33-.73.74-.73ZM5.91,4.7c0-.41-.33-.73-.74-.73-.41,0-.74.33-.74.73,0,.41.33.74.74.74h0c.41,0,.74-.33.74-.73h0ZM7.69,3.96c.41,0,.73.33.74.73,0,.41-.33.74-.74.74h0c-.41,0-.74-.33-.74-.74,0-.41.33-.73.74-.73h0Z"/>
  </g>
</svg>