<?xml version="1.0" encoding="UTF-8"?>
<svg id="Layer_2" data-name="Layer 2" xmlns="http://www.w3.org/2000/svg" viewBox="0 0 204.61 187.25">
  <defs>
    <style>
      .cls-1 {
        fill: #fbcd1b;
      }

      .cls-2 {
        fill: #171414;
      }

      .cls-3 {
        fill: #fefdff;
      }

      .cls-4 {
        fill: #e5483a;
      }
    </style>
  </defs>
  <g id="Layer_1-2" data-name="Layer 1">
    <path class="cls-1" d="M34.64,27.92C51.49,12.83,65.35,3.75,88.65.69c26.94-3.54,60.55,6.75,78.23,28.17,7.9-2.64,15.39-2.73,23.04,1.15,6.32,3.18,11.12,8.74,13.35,15.45,4.07,12.38-1.64,23.78-10.37,32.27.97,11.5,1.74,22.77-.59,34.19-8.33,40.81-40.14,71.26-81.89,74.95-25.24,2.28-50.33-5.8-69.5-22.38-23.36-19.87-36.63-55.5-29.51-85.66C3.03,70.3-2.03,60.67.78,48.38c3.47-15.16,19.04-23.91,33.86-20.46Z"/>
    <path class="cls-2" d="M47.41,36.46c3.03-7.93,6.96-13.19,15.02-16.8,6.86-3.08,14.68-3.28,21.69-.54,15.74,6.2,20.54,25.13,14.12,39.87-4.01,9.2-9.4,17.03-15.87,24.67-6.5,7.67-13.26,16.06-20.32,23.23-15.89-7.91-37.64-16.97-50.65-28.04C3.03,70.3-2.03,60.67.78,48.38c3.47-15.16,19.04-23.91,33.86-20.46,6.29,2.13,8.29,3.79,12.76,8.55Z"/>
    <path class="cls-4" d="M71.87,20c6.33-.44,14.1,1.23,18.6,5.95,23.64,24.74-12.18,60-29.16,77.83-9.26-4.82-19.13-9.32-28.56-13.95-14.4-7.32-29.08-16.36-29.91-34.22-.88-18.77,19.05-32.26,35.68-23.09,1.62.9,9.25,7.07,9.94,7.07,5.26-11.94,9.63-17.7,23.42-19.58Z"/>
    <path class="cls-3" d="M15.94,37.69c1.5.1,2.93.3,3.14,2.17.24,2.14-3.22,4.2-4.43,6.27-3.4,5.54-3.17,11.46-.37,17.17,2.19,4.46,4.04,5.24.79,9.14l-.62-.43c-6.25-4.23-9.56-14.39-7.74-21.65,1.61-6.43,3.77-9.26,9.24-12.66Z"/>
    <path class="cls-2" d="M141.95,104.82c-11.23-15.95-23.8-27.12-32.7-46.11-10.91-23.27,6-50.91,33.46-41.45,7.63,2.63,12.47,10.2,15.53,17.64,3.12-3.21,4.78-4.17,8.64-6.05,7.9-2.64,15.39-2.73,23.04,1.15,6.32,3.18,11.12,8.74,13.35,15.45,4.07,12.38-1.64,23.78-10.37,32.27-10,8.26-38.51,23.29-50.95,27.08Z"/>
    <path class="cls-4" d="M129.62,17.95c15.67-1.12,23.72,7.75,26.99,21.99,2.48-2.47,4.75-4.91,7.74-6.75,5.82-3.62,12.87-4.67,19.49-2.9,6.34,1.67,11.75,5.8,15.04,11.46,8.8,15.19-1.96,31.89-15.08,39.89-2.81,1.72-5.62,3.31-8.5,4.9-9.56,5.05-22.42,11.56-32.44,15.36-6.82-8.18-13.51-16.58-19.92-25.17-10.29-13.78-20.74-31.8-9.92-48.43,4.03-6.2,9.64-8.85,16.59-10.35Z"/>
    <path class="cls-3" d="M125.76,22.94c1.24-.09,3.45-.38,4.59,0,2.95,1.01,1.48,4.34-.99,4.87-5.39,1.15-8.67,5.21-10.66,10.05-1.97,4.78-1.56,8.77-1.57,13.74-8.19,4.92-10.18-20.75,8.64-28.66Z"/>
    <path class="cls-2" d="M53.72,114.58c2.48.5,2.99.29,3.81,2.71-.31,2.78-2.18,4.87-4.03,6.89,5.22,11.35,11.9,18.67,23.37,24.15,14.19,6.65,30.45,7.33,45.15,1.89,12.54-4.56,23.8-13.99,29.42-26.21-1.9-2.78-5.19-6.33-1.91-8.89,3.55-.43,3.82,4.81,6.36,7,3,2.59,8.63,1.28,9.67,5.24-.92,1.74-.29,1.03-2.07,2.1-3.48-.75-5.1-1.41-8.41-2.68-19.99,41.62-87.82,42.65-105.49-.04-2.8.92-11.83,3.95-11.68-1.39,5.76-5.74,8.24,2.57,15.82-10.78Z"/>
  </g>
</svg>