<?xml version="1.0" encoding="UTF-8"?>
<svg id="Layer_2" data-name="Layer 2" xmlns="http://www.w3.org/2000/svg" viewBox="0 0 188.25 193.15">
  <defs>
    <style>
      .cls-1 {
        fill: #fbcd1b;
      }

      .cls-2 {
        fill: #171414;
      }

      .cls-3 {
        fill: #fefdff;
      }
    </style>
  </defs>
  <g id="Layer_1-2" data-name="Layer 1">
    <path class="cls-1" d="M186.54,77.08c-2.88-11.87-6.53-20.86-12.54-31.04C152.55,9.73,107.81-8.78,67.18,4.08,43.25,11.43,23.27,28.05,11.68,50.23c-2.13,4.13-3.51,8.58-5.45,12.8-10.34,22.5-5.7,59.36-1.03,68.64-1.41,12.55.94,21.64,14.54,24.98,26.89,38.7,87.96,48.13,126.03,21.05,5.69-4.04,10.91-8.7,15.58-13.89,1.86-2.11,4.13-5.26,5.83-7.1,12.26-2.83,18.7-12.99,14.7-25.2,3.6-5.88,3.38-11.6,5.1-18.05l.14-.49c.86-9.46,2.31-24.02-.57-35.89Z"/>
    <path class="cls-2" d="M5.2,131.67c2.78-6.15,8.41-14.4,16.51-12.48,2.01.48,3.76,4.45-1.72,4.94-12.27,1.56-13.37,20.3-3.37,26.17,4.22,2.47,10.16.66,10.89,2.85,1.58,4.7-6.95,3.49-7.77,3.51-13.61-3.34-15.95-12.43-14.54-24.98Z"/>
    <path class="cls-2" d="M167.18,156.71c-1.68.02-2.93.09-4.51.03-1.53-.06-4.04-1.73-3.26-3.19,1.8-3.39,8.07-.65,12.03-3.61,3.51-2.63,4.98-4.37,6.15-8.93,1.37-7.83-2.03-16.38-10.86-17.04-2.65.03-3.22-3.97-.98-4.48,8.12-1.86,13.97,6.45,16.14,12.03,4,12.2-2.44,22.37-14.7,25.2Z"/>
    <path class="cls-2" d="M44.63,116.57c2.73-.12,6.58.77,9.22,1.55,22.64,6.72,45.96,7.3,68.98,2.35,6.03-1.3,12.66-3.52,18.76-4.01,4.28-.35,9.49,4.8,8.97,9.28-1.14,11.56-9.43,22.74-17.33,30.67-6.3,6.07-15.36,11.42-23.72,13.96-14.66,4.4-30.47,2.84-43.99-4.33-13.26-7.15-24.81-20.29-29.29-34.76-2.44-7.86.65-12.8,8.39-14.71Z"/>
    <path class="cls-2" d="M120.77,25.11c39.16-2.41,44.92,72.37,8.04,82.99-38.89,6.51-47.17-73.24-8.04-82.99Z"/>
    <path class="cls-3" d="M121.11,28.59c14.27-.71,18.77,6.64,24.51,18.16-4.74-.9-8.62-1.19-12.26,2.77-8.21,8.93-7.85,28.92.47,37.71,3.28,3.46,6.83,3.41,11.12,3.29-3.13,4.33-4.95,6.71-8.84,10.33-17.35,12.22-31.4-3.62-35.41-19.82-3.31-13.39-2.27-28.05,4.71-40.16,3.68-6.39,8.52-10.42,15.7-12.29Z"/>
    <path class="cls-2" d="M55.17,25.12c38.93-3.28,45.43,73.16,7.18,83.24-39.81,2.85-43.98-73.1-7.18-83.24Z"/>
    <path class="cls-3" d="M58.72,28.22c12.32.61,17.43,9.7,22.26,19.5-14.38-5.05-19.17,9.23-19.3,20.8-.08,6.58,1.78,14.25,6.49,19.02,3.38,3.43,6.26,3.48,10.7,3.33-2.97,4.76-4.41,6.69-8.64,10.33-6.83,4.88-14.7,5.26-21.85.6-22.3-14.55-19.49-70.45,10.34-73.58Z"/>
  </g>
</svg>