<?xml version="1.0" encoding="UTF-8"?>
<svg id="Layer_2" data-name="Layer 2" xmlns="http://www.w3.org/2000/svg" viewBox="0 0 308.93 193.11">
  <defs>
    <style>
      .cls-1 {
        fill: #f4bb14;
      }

      .cls-2 {
        fill: #fbcd1b;
      }

      .cls-3 {
        fill: #171414;
      }

      .cls-4 {
        fill: #fefdff;
      }

      .cls-5 {
        fill: #0b78d2;
      }
    </style>
  </defs>
  <g id="Layer_1-2" data-name="Layer 1">
    <path class="cls-2" d="M130.07,3.58c10.08-4.41,40.28-5.11,49.9-.02,5.68.56,31.89,12.06,44.65,26.01,9.95,13.38,15.57,22.5,19.52,39.14.7,2.95,2.1,12.11,3.24,14.05-1.95,3.17-5,7.47-5.04,11.18l.64.89c1.77.29,3.38-.68,4.89-1.67l.15,8.04c-2.04,0-3.4-.26-5.04.88-1.55,3,.97,4.33,3.3,5.94-3.27,33.11-22.06,61.9-52.26,76.35-31.78,15.21-70.92,10.28-97.76-12.48-19.3-16.34-31.23-39.75-33.11-64.96,1.89-1.31,2.56-1.65,3.12-3.68-1.1-1.71-.67-1.16-2.82-2.11-.62,0-1.22.02-1.84,0,.13-2.68,0-4.72-.18-7.39,1.1.61,2.24,1.13,3.35,1.72,2.42-3.39-.85-7.81-2.57-11.15,1.54-2.92,1.18-9.87,2.19-13.88,4.03-16.11,10.8-29.05,20.86-41.94,9.17-11.26,24.35-22,44.82-24.93Z"/>
    <path class="cls-1" d="M61.43,93.75c1.1.61,2.24,1.13,3.35,1.72l-.32.37c-.66.71-.79,4.09-1.01,5.28-.62,0-1.22.02-1.84,0,.13-2.68,0-4.72-.18-7.39Z"/>
    <path class="cls-3" d="M105.35,118.27c6.02-.45,16.44,3.47,23,4.84,28.41,5.96,47.49,2.26,74.33-5.33,2.29.68,4.96,1.52,6.67,3.2,9.42,9.25-6.15,29.73-12.66,36.4-17.11,15.35-36.15,21.06-58.95,14.59-14.74-4.61-28.01-16-34.97-29.75-4.47-8.82-8.71-18.78,2.58-23.95Z"/>
    <path class="cls-3" d="M185.68,28.82c35.12-1.44,43.6,73.98,3.76,83.52-37.76,1.36-43.14-76.17-3.76-83.52Z"/>
    <path class="cls-4" d="M183.6,32.76c14.1-1.29,20.76,7.42,25.43,19.16-4.7-1.98-9.1-3.07-13.24,1.19-8.49,8.74-8.43,29.07-.16,37.94,3.26,3.5,6.41,3.76,10.82,3.8-2.09,3.56-3.5,5.31-6.29,8.24-14.57,13.55-29.19,1.54-34.62-13.64-4.74-13.24-4.29-28.59,1.57-41.42,3.51-7.69,8.48-12.44,16.51-15.27Z"/>
    <path class="cls-3" d="M118.12,28.79c38.63-2.77,44.7,71.12,8.5,83.23-39.34,4.07-45.35-71.66-8.5-83.23Z"/>
    <path class="cls-4" d="M120.24,32.29c12.28-.85,17.88,7.62,22.86,17.17-6.17-1.85-10.99-.78-14.5,5.17-5.71,9.69-5.56,29.41,4.52,36.29,3.21,2.19,6.65,1.35,10.12.55-3.17,5.94-4.27,7.76-8.97,12.48-6.81,5.26-13.21,7.57-21.08,2.56-22.83-14.51-21.63-67.52,7.06-74.21Z"/>
    <path class="cls-3" d="M61.43,93.75c-10.03-6.18-22.92-10.26-34.79-10.01-10.61.23-28.55.83-26.47-15.04,1.47-11.21,15.32-14.79,25.01-12.71,15.93,3.41,28.04,15.33,37.03,28.33,1.73,3.35,4.99,7.76,2.57,11.15-1.11-.59-2.25-1.11-3.35-1.72Z"/>
    <path class="cls-5" d="M14,59.79c20.22-1.97,36.94,12.03,46.29,28.84-2.3-1.2-4.84-2.36-7.2-3.49-7.04-2.61-13.76-4.38-22.17-5-8.91-.65-32.17,3.3-26.18-13.76,1.21-3.46,5.85-5.41,9.25-6.59Z"/>
    <path class="cls-3" d="M247.38,82.76c9.36-12.58,21.41-24.43,37.55-26.95,6.2-.97,13.3-.02,18.28,3.93,11.05,8.75,4.93,23.71-8.7,23.81-3.32.02-6.65-.3-9.97-.24-11.89-.07-26.62,3.18-36.68,9.84-1.5.99-3.11,1.96-4.89,1.67l-.64-.89c.03-3.71,3.09-8,5.04-11.18Z"/>
    <path class="cls-5" d="M287.33,59.33c3.65-.51,7.36.08,10.67,1.71,4.44,2.14,9.79,8.99,6.67,13.69-5.29,7.97-20.22,4.53-28.46,5.51-5.09.61-9.53,1.53-14.53,2.78-5.68,1.93-8.8,3.31-14.15,6.06,8.93-14.94,22.38-26.62,39.8-29.75Z"/>
    <path class="cls-3" d="M248.01,101.19c14.84.14,50.42,6.13,49.97,26.45-.1,3.93-1.83,7.64-4.77,10.25-6.65,6-15.1,4.44-20.16-2.65-7.36-10.31-15.3-21.17-26.78-27.23-2.33-1.61-4.85-2.93-3.3-5.94,1.63-1.14,2.99-.88,5.04-.88Z"/>
    <path class="cls-5" d="M249.02,104.68c14.18.22,41.66,5.54,45.6,22.25.5,2.11-1.72,5.77-2.95,7.42-10.09,8.97-14.54-.47-19.99-7.61-6.32-8.53-13.97-15.98-22.67-22.06Z"/>
    <path class="cls-3" d="M61.61,101.13c.62.01,1.22,0,1.84,0,2.15.95,1.73.4,2.82,2.11-.56,2.03-1.23,2.37-3.12,3.68-13.26,8.44-20.05,17.03-28.32,29.83-3.43,5.3-14.73,6.41-19.46,1.33-6.54-7.02-5.11-16.76,1.83-23.13,11.42-10.21,29.56-13.85,44.41-13.82Z"/>
    <path class="cls-5" d="M54.9,105.4c.95-.18,3.62-.56,1.59.96-4.87,3.68-9.36,7.85-13.4,12.43-2.12,2.41-4.09,4.95-5.9,7.6-4.14,6.12-7.18,15.47-16.8,10.3l-.72-.37c-3.97-3.1-4.15-4.39-5.56-8.99,4.86-16.51,25.94-20.31,40.79-21.94Z"/>
  </g>
</svg>