<?xml version="1.0" encoding="UTF-8"?>
<svg id="Layer_2" data-name="Layer 2" xmlns="http://www.w3.org/2000/svg" viewBox="0 0 185.59 186.39">
  <defs>
    <style>
      .cls-1 {
        fill: #fbcd1b;
      }

      .cls-2 {
        fill: #171414;
      }

      .cls-3 {
        fill: #fefdff;
      }
    </style>
  </defs>
  <g id="Layer_1-2" data-name="Layer 1">
    <path class="cls-1" d="M0,101.74c-.13-29.47,6.37-52.63,27.65-74.27C44.79,10.11,68.09.24,92.49,0c24.13.15,47.24,9.7,64.44,26.62,19.31,19.32,28.81,43.23,28.65,70.43-.01,1.94-.03,3.87-.07,5.81-1.71,16.16-8.63,29.97-10.28,33.36-21.02,43.3-71.91,60.99-116.16,43.47C40.72,172.42,2.01,143.35,0,101.74Z"/>
    <path class="cls-2" d="M53.51,26.11c15.96-1.53,25.23,10.81,29.48,24.54,4.33,13.99,2.89,29.13-4.01,42.05-4.01,7.47-8.92,11.73-17.01,14.23-38.06,6.83-46.4-70.65-8.46-80.83Z"/>
    <path class="cls-3" d="M54.31,29.67c13.05-.62,18.53,6.79,23.58,17.52-23.77-12.51-26.29,47.09-.65,40.88-2.24,4.36-3.58,6.74-6.86,10.36-16.45,13.64-31.24-.29-35.85-16.95-4.04-14.59-2.41-31.6,7.2-43.81,3.38-4.29,7.45-6.5,12.57-7.99Z"/>
    <path class="cls-2" d="M117.88,26.14c38.32-3.78,43.68,71.41,7.45,80.82-36.56,4.74-45.33-68.82-7.45-80.82Z"/>
    <path class="cls-3" d="M119.94,29.63c12.02-1.06,18.21,8.13,22.58,17.7-6-1.97-11.05-1.54-14.89,4.22-6.32,9.48-5.78,28.9,4.05,35.87,3.28,2.33,6.38,1.82,10.03,1.05-2.28,4.17-3.95,6.45-7.21,9.83-16.44,13.59-31.65-.82-35.69-17.38-4.55-18.63-.45-45.7,21.14-51.29Z"/>
    <path class="cls-2" d="M131.44,120.89c2.29.66,2.12.57,3.04,2.14.25,2.61-1.52,6.7-2.58,9.21-4.14,9.99-12.17,17.86-22.25,21.79-24.36,9.55-48.31-2.09-57.4-26.34-.8-2.39-1.69-4.49.98-5.88.88.29,2.27.97,2.54,1.96,9.4,34.14,55.58,39.07,71.25,7.38,1.39-2.81,2.19-8.04,4.41-10.26Z"/>
  </g>
</svg>