<?xml version="1.0" encoding="UTF-8"?>
<svg id="Layer_2" data-name="Layer 2" xmlns="http://www.w3.org/2000/svg" viewBox="0 0 184.28 191.37">
  <defs>
    <style>
      .cls-1 {
        fill: #fbcd1b;
      }

      .cls-2 {
        fill: #171414;
      }

      .cls-3 {
        fill: #fefdff;
      }
    </style>
  </defs>
  <g id="Layer_1-2" data-name="Layer 1">
    <path class="cls-1" d="M120.92,4.05C101.21-3.36,75.53.1,56.62,8.72c-.78.36-1.56.72-2.33,1.08-13.17.29-24.02,6.69-32.13,16.85-2.22,2.79-2,4.3-.97,7.51-4.41,7.98-8.51,13.72-12.65,22.27C-.87,75.86-2.45,101.99,3.53,122.61c6.91,24.15,23.08,44.59,44.98,56.89,21.93,12.21,47.82,15.14,71.93,8.14,22.95-7.08,42.2-22.88,53.61-44.01,13.09-24.53,11.42-49.51,7.08-76.95C173.41,17.95,120.91,3.74,120.92,4.05Z"/>
    <path class="cls-2" d="M145.8,14.12c-14.01-5.23-32.72-3.34-31.54,1.87.28,1.26,1.87,2.51,3.12,2.9,8.95,1.87,17.23-.72,25.75,4.25,6.16,3.59,9.59,8.81,15.34,12.59.49.32,3.87-1.01,4.49-1.37.84-9.63-9.12-17.23-17.15-20.23Z"/>
    <path class="cls-2" d="M54.29,9.8c5.54.74,15.82-1.94,14.72,6.66-.46,3.62-6.95,3.3-9.34,3.16-7.21-.44-12.96.27-19.48,3.6-2.66,1.36-5.08,3.13-7.17,5.26-5.66,5.85-4.29,8.92-11.84,5.67-1.03-3.21-1.25-4.72.97-7.51,8.12-10.16,18.96-16.56,32.13-16.85Z"/>
    <path class="cls-2" d="M55.82,35.89c37.65,1.36,39.64,77.08,1.84,82.75-38.01-1.21-39.2-78.48-1.84-82.75Z"/>
    <path class="cls-3" d="M56.6,39.37c6.07.26,11.3,3.36,15.25,7.93,2.15,2.49,7.23,8.77,5.49,12.04-18.58-10.26-23.55,26.92-13.96,36.65,5.23,5.3,4.93,5.17,12.1,6.26-2.32,3.65-4.17,5.61-7.29,8.46-37.47,24.06-52.4-65.19-11.59-71.34Z"/>
    <path class="cls-2" d="M121.72,35.87c32.9-2.06,42.95,72.85,3.65,82.39-39.8,1.53-41.58-77.2-3.65-82.39Z"/>
    <path class="cls-3" d="M122.33,39.4c12.77,1.21,18.88,10.17,22.44,21.32-4.53-3.58-9.05-4.26-13.54.03-8.95,8.56-8.9,28.17-.65,37.25,3.34,3.68,6.49,3.78,10.96,3.76-2.57,3.82-3.69,5.25-6.9,8.47-18.68,14-33.57-6.34-36.01-23.79-2.44-17.42,2.86-44.02,23.7-47.05Z"/>
    <path class="cls-2" d="M46.32,122.81c6.36,1.71,1.85,6.42-.52,10.1,1.13,2.9,2.72,5.5,4.59,7.98,20.54,27.19,64.88,27.89,86.1,1.14,2.23-2.8,3.84-5.38,5.66-8.47-2.34-3.01-3.8-5.48-3.97-9.3,2.9-5.22,6.8,5.4,8.18,6.87,2.48,2.64,6.65,2.1,9.47,4.4.73,2.03.59.98.18,3.3-5.07.2-5.98-.43-10.47-2.56-17.78,40-85.02,39.92-103.52-.32-3.29,1.18-6.21,2.45-9.73,2.13-1.51-.92-1.01-.28-1.52-2.03,1.08-3.82,5.28-2.43,9.06-4.43,3.73-1.98,4.03-5.29,6.5-8.81Z"/>
  </g>
</svg>