<?xml version="1.0" encoding="UTF-8"?>
<svg id="Layer_2" data-name="Layer 2" xmlns="http://www.w3.org/2000/svg" viewBox="0 0 752.65 147.13">
  <g id="Layer_1-2" data-name="Layer 1">
    <g>
      <path d="M17.56,108.99c7.27,9.89,20.18,16.15,32.09,16.15,9.49,0,17.76-3.23,17.76-10.9,0-8.07-7.87-9.08-24.82-12.31-17.16-3.43-36.13-7.87-36.13-30.68,0-20.38,17.96-34.51,43.39-34.51,18.77,0,35.52,7.67,43.8,18.37l-16.15,17.76c-7.06-9.08-17.36-14.13-28.46-14.13-8.88,0-14.73,3.83-14.73,9.69,0,6.86,7.06,8.07,20.18,10.7,18.57,3.83,40.57,8.07,40.57,32.09,0,22.2-20.59,35.93-46.02,35.93-19.17,0-39.36-7.06-49.04-20.18l17.56-17.96Z"/>
      <path d="M152.96,147.13c-30.68,0-52.07-22.2-52.07-55.3s21.39-55.1,52.07-55.1,52.07,22.2,52.07,55.1-21.39,55.3-52.07,55.3ZM152.96,123.72c14.73,0,23.82-11.71,23.82-31.89s-9.08-31.69-23.82-31.69-24.02,11.71-24.02,31.69,9.28,31.89,24.02,31.89Z"/>
      <path d="M264.55,123.32c11.71,0,18.77-8.07,21.39-18.97l24.42,10.9c-4.84,17.36-21.39,31.89-46.02,31.89-30.88,0-52.68-22.4-52.68-55.3s21.8-55.1,52.68-55.1c24.42,0,40.57,14.13,45.61,31.28l-24.02,11.3c-2.62-10.9-9.69-18.97-21.39-18.97-14.94,0-24.82,11.71-24.82,31.49s9.89,31.48,24.82,31.48Z"/>
      <path d="M319.44,0h28.86v26.24h-28.86V0ZM348.1,144.91h-28.26V38.75h28.26v106.16Z"/>
      <path d="M359.56,115.45c0-21.19,16.95-30.07,38.35-33.91l26.44-5.05v-1.61c0-9.08-4.64-14.73-16.35-14.73-10.5,0-15.94,4.64-18.37,14.13l-26.84-5.05c4.84-17.96,20.99-32.49,46.22-32.49,26.84,0,42.99,12.31,42.99,36.93v43.39c0,5.65,2.42,7.47,8.68,6.66v21.19c-17.96,2.62-28.86-1.01-33.5-9.89-6.86,7.47-17.56,11.71-31.49,11.71-20.79,0-36.13-12.51-36.13-31.28ZM424.35,96.27l-20.79,4.24c-9.28,1.82-16.15,4.84-16.15,13.32,0,7.27,5.45,11.5,13.93,11.5,11.91,0,23.01-6.26,23.01-18.16v-10.9Z"/>
      <path d="M500.76,144.91h-28.26V0h28.26v144.91Z"/>
      <path d="M518.19,0h28.86v26.24h-28.86V0ZM546.85,144.91h-28.26V38.75h28.26v106.16Z"/>
      <path d="M647.42,144.91h-88.4v-20.79l53.89-61.76h-53.28v-23.61h87.19v20.99l-52.07,61.56h52.68v23.61Z"/>
      <path d="M652.54,91.83c0-31.28,21.6-55.1,51.67-55.1s48.44,23.41,48.44,53.08v8.27h-73.06c2.02,16.15,11.91,25.83,25.83,25.83,10.9,0,19.58-5.25,22.81-15.54l23.82,8.48c-7.67,19.38-25.63,30.27-46.82,30.27-31.28,0-52.68-22.4-52.68-55.3ZM680.59,78.92h44c-.2-10.5-6.86-19.58-20.59-19.58-11.3,0-19.98,6.66-23.41,19.58Z"/>
    </g>
  </g>
</svg>