<?xml version="1.0" encoding="UTF-8"?>
<svg id="Layer_2" data-name="Layer 2" xmlns="http://www.w3.org/2000/svg" viewBox="0 0 184.28 184.28">
  <defs>
    <style>
      .cls-1 {
        fill: #fbcd1b;
      }

      .cls-2 {
        fill: #171414;
      }

      .cls-3 {
        fill: #e5483a;
      }
    </style>
  </defs>
  <g id="Layer_1-2" data-name="Layer 1">
    <path class="cls-1" d="M85.88.22c50.58-3.44,94.44,34.62,98.15,85.18,3.71,50.56-34.12,94.62-84.65,98.6C48.46,188,3.99,149.83.25,98.89-3.49,47.95,34.92,3.69,85.88.22Z"/>
    <path class="cls-2" d="M138.44,94.8c.97.2,1.57.59,1.94,1.55,1.64,4.22-15.18,7.89-17.32,8.53-.39,12.63,1.34,33.8-3.38,44.19-3.45,7.73-9.85,13.77-17.78,16.75-8.15,3.05-17.18,2.65-25.03-1.1-9.4-4.47-14.42-11.02-17.89-20.56-2.41-9.39-1.47-29.57-1.38-39.98-2.98-.9-15.45-3.68-14.74-7.61.37-.29.75-.58,1.12-.87,4.55,1.02,14.89,4.53,18.79,5.55,27.01,7.09,50.16,3.53,75.67-6.45Z"/>
    <path class="cls-3" d="M61.6,104.97c9.78,2.33,17.05,3.29,27.08,3.9,0,3.76-.49,30.36.3,32.35,1.52.92.69.72,2.59.45,1.82-2.01,1.07-28.15,1.06-32.74,8.98.03,17.37-1.36,26.1-3.15l-.05,21.8c.05,10.42-.13,19.21-7.74,27.52-5.07,5.59-12.22,8.83-19.77,8.95-7.97.07-15.64-3.07-21.27-8.72-9.43-9.45-8.52-19.23-8.45-31.39l.15-18.96Z"/>
    <path class="cls-2" d="M129.89,56.01c3.34-.07,6.66.51,9.77,1.71,4.77,1.83,16.38,11.28,14.1,18.64-.78,2.54-4.36,2.41-4.86-1.66-.66-5.36-5.87-9.47-10.51-12.13-17.48-6.61-22.05,9.17-25.99,10.27-.53.15-1.39.21-1.85-.14-.48-.35-.9-1.29-1-1.86-.31-1.64,1.46-3.82,2.35-4.97,4.75-6.12,10.46-8.85,17.99-9.85Z"/>
    <path class="cls-2" d="M50.77,55.98c8.86-.2,17.38,3.92,21.85,11.63,2.92,5.05-1.54,8.35-4.83,1.64-2.98-6.09-12.63-9.22-19.57-7.93-12.72,4.39-13.68,15.98-16.06,16.42-.61.12-1.24,0-1.76-.35-.62-.42-1.04-1.07-1.17-1.81-.4-2.28,2.03-7.07,3.37-8.75,5.39-6.72,9.91-9.6,18.17-10.86Z"/>
  </g>
</svg>