<?xml version="1.0" encoding="UTF-8"?>
<svg id="Layer_2" data-name="Layer 2" xmlns="http://www.w3.org/2000/svg" viewBox="0 0 257.63 263.49">
  <defs>
    <style>
      .cls-1 {
        fill: #393839;
      }
    </style>
  </defs>
  <g id="Layer_1-2" data-name="Layer 1">
    <g>
      <path class="cls-1" d="M222.1,31.55c-7.86-2.07-18.59-6.74-29.95-11.69C165.34,8.18,134.96-5.06,115.26,1.95c-8.85,2.67-17.01,5.1-24.55,7.34C-.35,36.32-1.19,37.36.29,120.02c.21,11.96.46,25.51.46,41.19,0,37.68,9.4,53.8,37.21,63.89,8.26,3.1,17.97,8.63,28.26,14.48,10.3,5.86,20.95,11.92,31.72,16.52,11.57,4.95,21.43,7.38,30.13,7.38,4.58,0,8.85-.68,12.87-2.02l6.18-2.17c42.62-14.98,73.41-25.8,89.21-36.41,16.73-11.23,17.62-22.98,19.11-42.45l.12-1.52c.75-9.72.71-21.09.67-35.48-.05-15.85-.1-35.58.96-59.61,3.25-24.63-10.82-45.63-35.07-52.29ZM119.36,220.78c-.11,8.71-.85,17.39-5.42,21.93-2.74,2.71-6.04,3.1-9.81,1.18l-63.77-32.53c-3.03-1.55-5.75-3.26-8.62-5.07-1.97-1.24-4.01-2.53-6.17-3.76-13.32-7.61-12.26-30.83-11.75-41.99.07-1.53.13-2.86.15-3.91l1.28-82.29c.08-5.08,2.19-11.81,5.93-14.29,1.05-.7,2.2-1.04,3.45-1.04,1.07,0,2.21.25,3.45.75l37.75,15.93,41.44,16.69c9.33,3.76,13.6,11.48,13.44,24.3l-1.35,104.13ZM116.34,81.59l-24.04-9.47-59.08-22.61c-.85-.33-2.1-1.34-2.08-2.47.01-.65.66-4.08,12.09-7.9L117.31,15.2c4.48-1.45,8.75-2.17,12.95-2.17,4.68,0,9.27.9,13.96,2.71l74.35,28.66c5.66,2.19,8.7,3.67,9.03,4.41.01.04.03.24-.13.97-.53,2.39-3.92,4.99-4.69,5.31-21.58,6.19-40.13,12.49-59.77,19.16-7.61,2.58-15.47,5.25-23.73,7.99-7.67,2.55-15.39,2.33-22.93-.64ZM243.95,88.2l-2.21,86.01c-.21,7.97-.58,13.58-1.31,19.36-1.55,12.35-9.02,17.68-21.41,22.7l-57.17,23.2c-.28.11-.62.29-1.36.67-8.39,4.32-19.65,8.68-25.64,4.88-3.31-2.1-4.86-6.75-4.62-13.82l1.42-34.06,2.3-74.82c.16-5.09.68-8.98,1.7-12.63,2.44-8.74,8.53-15.05,17.13-17.77,6.98-2.2,13.95-4.42,20.92-6.64,5.39-1.71,10.79-3.43,16.18-5.14,4-1.27,7.6-2.65,11.09-3.99,9.14-3.52,17.77-6.84,31.32-6.84,4.83,0,10.65,5.79,11.32,11.26.3,2.48.4,4.77.33,7.63Z"/>
      <path class="cls-1" d="M201.47,133.04c-4.07-1.73-8.36-1.27-12.41,1.36-9.41,6.1-14.14,17.94-11.5,28.77,1.01,4.13,3.82,7.65,7.34,9.18,1.66.72,3.38,1.08,5.1,1.08,2.48,0,4.96-.74,7.29-2.22h0c9.78-6.2,14.58-18.68,11.43-29.67-1.08-3.75-3.92-7.08-7.25-8.5Z"/>
      <path class="cls-1" d="M237.15,91.74c-.9-5.53-4.23-9.81-8.92-11.46-4.39-1.54-9.47-.28-13.94,3.47-5.84,4.88-10.97,14.49-9.28,24.95.89,5.51,4.25,9.77,9,11.38,1.23.42,2.52.63,3.82.63,3.43,0,7.01-1.43,10.24-4.15,5.74-4.85,10.77-14.41,9.09-24.82h0Z"/>
      <path class="cls-1" d="M169.45,188.15c-3.76-1.72-7.97-1.4-11.86.89-7.36,4.34-12.42,12.86-12.9,21.69-.34,6.23,1.83,11.56,5.93,14.63h0c2.08,1.56,4.5,2.34,7,2.34,2.29,0,4.65-.65,6.9-1.96,9.8-5.71,14.89-17.78,12.11-28.71-1.01-3.96-3.7-7.28-7.19-8.88Z"/>
      <path class="cls-1" d="M147.64,65.31c.1-5.79-6.57-9.82-16.99-10.29-9.61-.43-20.15,2.41-20.66,9.63-.18,2.56,1.15,4.97,3.76,6.8,3.33,2.34,8.97,3.82,15.02,3.82,4.43,0,9.08-.79,13.2-2.61,2.58-1.14,5.61-3.75,5.68-7.35Z"/>
      <path class="cls-1" d="M171.43,55.66c3.97,2.32,9,3.33,13.87,3.33,6.55,0,12.83-1.83,15.91-4.79,2.35-2.25,2.87-5.09,1.44-7.78-1.16-2.17-3.28-3.94-5.97-4.97-7.97-3.05-16.55-2.92-24.16.36-3.33,1.44-5.41,4.01-5.58,6.88-.16,2.72,1.43,5.19,4.48,6.97Z"/>
      <path class="cls-1" d="M89.8,40.31c-5.43-4-17.4-5.51-27.29-.97-2.32,1.06-5.02,3.48-5,6.8.02,5.26,6,8.89,15.59,9.49.82.05,1.65.08,2.48.08,8.31,0,16.74-2.62,17.54-8.79.32-2.45-.86-4.8-3.31-6.61Z"/>
      <path class="cls-1" d="M129.06,37.19c.58.02,1.17.04,1.75.04,8.46,0,16.75-2.58,17.42-8.61.15-1.32-.07-3.87-3.2-6.14-5.54-4.03-17.94-5.42-27.57-1.06-2.41,1.09-4.81,3.55-4.73,6.57.11,4.13,4.46,8.72,16.32,9.21Z"/>
      <path class="cls-1" d="M89.08,184.91c-5.01.06-9.18,3.61-10.61,9.06-2.58,9.78.98,20.86,8.84,27.57,2.35,2,5.17,3.05,7.89,3.05,1.55,0,3.08-.34,4.46-1.04h0c3.64-1.84,6.05-5.64,6.79-10.71,1.21-8.32-2.29-18.24-8.5-24.13-2.63-2.49-5.76-3.82-8.87-3.8Z"/>
      <path class="cls-1" d="M34.71,158.04c-5.01.06-9.18,3.61-10.61,9.06-2.58,9.78.98,20.86,8.84,27.57,2.35,2,5.17,3.05,7.89,3.05,1.55,0,3.08-.34,4.46-1.04,3.64-1.84,6.05-5.64,6.79-10.71,1.21-8.32-2.28-18.25-8.5-24.13-2.63-2.49-5.75-3.83-8.87-3.8Z"/>
      <path class="cls-1" d="M40.41,118.52c.98,0,1.95-.15,2.89-.45,3.76-1.21,6.47-4.5,7.64-9.26,1.75-7.11-.19-18.08-7.29-25.29-3.54-3.59-8.01-4.79-11.96-3.2-3.65,1.46-6.21,4.92-7.21,9.75-1.72,8.28,1.31,18.37,7.39,24.53,2.52,2.56,5.56,3.92,8.53,3.92Z"/>
      <path class="cls-1" d="M70.39,135.7c-3.36-3.41-7.6-4.55-11.37-3.04-3.46,1.39-5.89,4.67-6.84,9.24-1.62,7.8,1.24,17.3,6.96,23.1,2.39,2.42,5.28,3.72,8.1,3.72.93,0,1.86-.14,2.75-.43,3.57-1.15,6.15-4.27,7.26-8.78,1.65-6.7-.18-17.03-6.86-23.82Z"/>
      <path class="cls-1" d="M88.58,104.54c-3.64,1.46-6.2,4.92-7.21,9.75-1.72,8.29,1.31,18.37,7.39,24.53,2.52,2.56,5.56,3.92,8.53,3.92.98,0,1.95-.15,2.89-.45,3.76-1.21,6.47-4.5,7.64-9.26,1.75-7.11-.19-18.08-7.29-25.29-3.54-3.59-8.01-4.79-11.96-3.21Z"/>
    </g>
  </g>
</svg>