<?xml version="1.0" encoding="UTF-8"?>
<svg id="Layer_2" data-name="Layer 2" xmlns="http://www.w3.org/2000/svg" viewBox="0 0 211.25 277.37">
  <defs>
    <style>
      .cls-1 {
        fill: #100f0e;
      }

      .cls-2 {
        fill: #fff;
      }
    </style>
  </defs>
  <g id="Layer_1-2" data-name="Layer 1">
    <g>
      <path class="cls-1" d="M211.22,234.06l-.03-41.04-.13-162.39c-.06-8.68.25-16.89-6.92-23.72-11.53-10.97-31.46-5.11-45.95-6.7-3.57-.39-68.3-.16-81.71-.02-.5,0-1.13,0-1.86.01-.09.1-.18.19-.27.28l-7.66-.49-24.23,22.6-20.34,18.96L.19,62.01,0,83.01l.11-.07v53.33s0,84.07,0,84.07c0,4.54-.03,9.22.02,13.71.17,17.57-3.68,40.28,20.44,42.83,6.11.65,13.77.15,20,.14l70.14-.07,48.07.06c12.56.02,34.95,2.43,44.71-5.44,6.66-6.76,7.76-12.13,7.75-21.27,0-5.38,0-10.86-.03-16.25ZM22.14,70.06l48.32-46.53v46.56H22.14v-.04ZM22.29,254.73l-.14-165.1h66.66V22.59c44.62,0,95.88.04,100.66.06v217.12s.02,15.04.02,15.04l-167.2-.07Z"/>
      <polygon class="cls-2" points="70.46 23.54 22.14 70.06 22.14 70.1 70.46 70.1 70.46 23.54"/>
    </g>
  </g>
</svg>