<?xml version="1.0" encoding="UTF-8"?>
<svg id="Layer_2" data-name="Layer 2" xmlns="http://www.w3.org/2000/svg" viewBox="0 0 257.63 263.49">
  <defs>
    <style>
      .cls-1 {
        fill: #393839;
      }
    </style>
  </defs>
  <g id="Layer_1-2" data-name="Layer 1">
    <g>
      <path class="cls-1" d="M222.1,31.55c-7.86-2.07-18.59-6.74-29.95-11.69C165.34,8.18,134.96-5.06,115.26,1.95c-8.85,2.67-17.01,5.1-24.55,7.34C-.35,36.32-1.19,37.36.29,120.02c.21,11.96.46,25.51.46,41.19,0,37.68,9.4,53.8,37.21,63.89,8.26,3.1,17.97,8.63,28.26,14.48,10.3,5.86,20.95,11.92,31.72,16.52,11.57,4.95,21.43,7.38,30.13,7.38,4.58,0,8.85-.68,12.87-2.02l6.18-2.17c42.62-14.98,73.41-25.8,89.21-36.41,16.73-11.23,17.62-22.98,19.11-42.45l.12-1.52c.75-9.72.71-21.09.67-35.48-.05-15.85-.1-35.58.96-59.61,3.25-24.63-10.82-45.63-35.07-52.29ZM119.36,220.78c-.11,8.71-.85,17.39-5.42,21.93-2.74,2.71-6.04,3.1-9.81,1.18l-63.77-32.53c-3.03-1.55-5.75-3.26-8.62-5.07-1.97-1.24-4.01-2.53-6.17-3.76-13.32-7.61-12.26-30.83-11.75-41.99.07-1.53.13-2.86.15-3.91l1.28-82.29c.08-5.08,2.19-11.81,5.93-14.29,1.05-.7,2.2-1.04,3.45-1.04,1.07,0,2.21.25,3.45.75l37.75,15.93,41.44,16.69c9.33,3.76,13.6,11.48,13.44,24.3l-1.35,104.13ZM116.34,81.59l-24.04-9.47-59.08-22.61c-.85-.33-2.1-1.34-2.08-2.47.01-.65.66-4.08,12.09-7.9L117.31,15.2c4.48-1.45,8.75-2.17,12.95-2.17,4.68,0,9.27.9,13.96,2.71l74.35,28.66c5.66,2.19,8.7,3.67,9.03,4.41.01.04.03.24-.13.97-.53,2.39-3.92,4.99-4.69,5.31-21.58,6.19-40.13,12.49-59.77,19.16-7.61,2.58-15.47,5.25-23.73,7.99-7.67,2.55-15.39,2.33-22.93-.64ZM243.95,88.2l-2.21,86.01c-.21,7.97-.58,13.58-1.31,19.36-1.55,12.35-9.02,17.68-21.41,22.7l-57.17,23.2c-.28.11-.62.29-1.36.67-8.39,4.32-19.65,8.68-25.64,4.88-3.31-2.1-4.86-6.75-4.62-13.82l1.42-34.06,2.3-74.82c.16-5.09.68-8.98,1.7-12.63,2.44-8.74,8.53-15.05,17.13-17.77,6.98-2.2,13.95-4.42,20.92-6.64,5.39-1.71,10.79-3.43,16.18-5.14,4-1.27,7.6-2.65,11.09-3.99,9.14-3.52,17.77-6.84,31.32-6.84,4.83,0,10.65,5.79,11.32,11.26.3,2.48.4,4.77.33,7.63Z"/>
      <path class="cls-1" d="M198.07,136.03c-3.76-1.72-7.97-1.4-11.86.89-7.36,4.34-12.42,12.86-12.9,21.69-.34,6.23,1.83,11.56,5.93,14.63h0c2.08,1.56,4.5,2.34,7,2.34,2.29,0,4.65-.65,6.9-1.96,9.8-5.71,14.89-17.78,12.11-28.71-1.01-3.96-3.7-7.28-7.19-8.88Z"/>
      <path class="cls-1" d="M139.58,67.3c.08-4.63-5.47-7.86-14.16-8.23-8.01-.34-16.79,1.92-17.22,7.7-.15,2.04.96,3.98,3.13,5.44,2.78,1.87,7.48,3.05,12.52,3.05,3.69,0,7.57-.63,11-2.09,2.15-.91,4.68-3,4.73-5.88Z"/>
      <path class="cls-1" d="M173.28,56.29c.08-4.63-5.47-7.86-14.16-8.23-8.01-.34-16.79,1.92-17.22,7.7-.15,2.04.96,3.98,3.13,5.44,2.78,1.87,7.48,3.05,12.52,3.05,3.69,0,7.57-.63,11-2.09,2.15-.91,4.68-3,4.73-5.88Z"/>
      <path class="cls-1" d="M207.3,47.51c.08-4.63-5.47-7.86-14.16-8.23-8.01-.34-16.79,1.92-17.22,7.7-.15,2.04.96,3.98,3.13,5.44,2.78,1.87,7.48,3.05,12.52,3.05,3.69,0,7.57-.63,11-2.09,2.15-.91,4.68-3,4.73-5.88Z"/>
      <path class="cls-1" d="M86.22,47.27c.08-4.63-5.47-7.86-14.16-8.23-8.01-.34-16.79,1.92-17.22,7.7-.15,2.04.96,3.98,3.13,5.44,2.78,1.87,7.48,3.05,12.52,3.05,3.69,0,7.57-.63,11-2.09,2.15-.91,4.68-3,4.73-5.88Z"/>
      <path class="cls-1" d="M119.92,36.25c.08-4.63-5.47-7.86-14.16-8.23-8.01-.34-16.79,1.92-17.22,7.7-.15,2.04.96,3.98,3.13,5.44,2.78,1.87,7.48,3.05,12.52,3.05,3.69,0,7.57-.63,11-2.09,2.15-.91,4.68-3,4.73-5.88Z"/>
      <path class="cls-1" d="M153.93,27.48c.08-4.63-5.47-7.86-14.16-8.23-8.01-.34-16.79,1.92-17.22,7.7-.15,2.04.96,3.98,3.13,5.44,2.78,1.87,7.48,3.05,12.52,3.05,3.69,0,7.57-.63,11-2.09,2.15-.91,4.68-3,4.73-5.88Z"/>
      <path class="cls-1" d="M89.08,188.72c-5.01.05-9.18,3.27-10.61,8.19-2.58,8.84.98,18.86,8.84,24.92,2.35,1.81,5.17,2.76,7.89,2.76,1.55,0,3.08-.31,4.46-.94h0c3.64-1.66,6.05-5.1,6.79-9.68,1.21-7.52-2.29-16.49-8.5-21.81-2.63-2.25-5.76-3.46-8.87-3.44Z"/>
      <path class="cls-1" d="M67.14,168.28c1.02,0,2.03-.14,3-.42,3.91-1.14,6.73-4.22,7.94-8.7,1.82-6.68-.2-16.99-7.57-23.76-3.68-3.38-8.32-4.5-12.43-3.01-3.79,1.37-6.45,4.63-7.49,9.15-1.79,7.78,1.37,17.26,7.68,23.04,2.62,2.4,5.78,3.69,8.87,3.69Z"/>
      <path class="cls-1" d="M40.94,111.89c1.01,0,2.01-.14,2.98-.42,3.88-1.13,6.68-4.2,7.89-8.64,1.8-6.64-.2-16.87-7.52-23.6-3.65-3.35-8.27-4.47-12.35-2.99-3.76,1.37-6.41,4.59-7.44,9.09-1.78,7.73,1.36,17.14,7.63,22.89,2.6,2.39,5.74,3.66,8.81,3.66Z"/>
    </g>
  </g>
</svg>