<?xml version="1.0" encoding="UTF-8"?>
<svg id="Layer_2" data-name="Layer 2" xmlns="http://www.w3.org/2000/svg" viewBox="0 0 275.51 228.9">
  <defs>
    <style>
      .cls-1 {
        fill: #100f0e;
      }
    </style>
  </defs>
  <g id="Layer_1-2" data-name="Layer 1">
    <path class="cls-1" d="M274.18,50.04c-2.05-11.24-14.92-21.68-26.22-22.14-12.03-.49-24.26-.24-36.32-.23h-72.06c-6.05-6.87-12.52-13.44-18.82-20.08-4.33-4.56-6.76-7.38-13.44-7.46-23.61-.28-47.24-.02-70.85-.02-2.95,0-6.43-.08-9.34.23C13,2.3,1.15,12.39.47,27.11c-.55,11.81-.2,24.08-.2,35.94v56.75s0,54.76,0,54.76c0,18.54-3.35,36.22,13.55,48.22,10.27,7.3,19.61,5.97,31.52,5.93l25.78-.06,85.54-.04,62.15.03c7.91,0,23.56.86,30.82-.56,14.5-3.86,24.85-15.11,25.45-30.36.32-8.11.22-16.19.23-24.3v-44.63s.04-42.66.04-42.66c0-11.21.8-25.3-1.17-36.08ZM251.2,200.57H24.24V62.08c.06-.04.12-.07.18-.1-.02-9.09-.24-18.22-.17-27.29.06-8.87.77-10.45,10.37-10.51,6.11-.04,12.4,0,18.52-.03,16.56-.25,33.12-.19,49.68.17,7.52,7.32,18.02,20.82,26.36,26.07,3.42,2.15,23.34,1.46,28.65,1.46l56.57-.03c9.62-.01,19.4-.18,29.01.12,7.06.22,7.82,2.71,7.78,9.18,0,1.25-.02,2.52-.03,3.77h.03s0,135.67,0,135.67Z"/>
  </g>
</svg>