<?xml version="1.0" encoding="UTF-8"?>
<svg id="Layer_2" data-name="Layer 2" xmlns="http://www.w3.org/2000/svg" viewBox="0 0 235.67 237.37">
  <defs>
    <style>
      .cls-1 {
        fill: #100f0e;
      }

      .cls-2 {
        fill: #fff;
      }
    </style>
  </defs>
  <g id="Layer_1-2" data-name="Layer 1">
    <path class="cls-1" d="M221.7,11.2c16.51,16.34,18.91,40.55,4.42,59.35-3.49,4.53-8.76,9.2-12.88,13.28l-16.37,16.73c-8.81,7.81-20.42,20.16-29,28.79l-52.87,53.04c-5.27,5.26-23.44,24.5-29.05,27.02-11.76,5.28-67.76,26.16-76.68,27.97-1.16.23-8.06-8.98-9.26-9.38,0,0,25.33-77.89,28.98-82.66,3.1-4.04,7.2-7.59,10.85-11.15,6.23-6.03,12.41-12.12,18.54-18.26L151.99,22.12C163.18,10.7,172.52,1.64,189.32.18c12.86-1.11,22.64,2.92,32.38,11.02Z"/>
    <path class="cls-2" d="M151.95,55.89l27.68,27.7-57.29,57.41c-12.41,12.47-25.31,26.05-38.03,38.04l-27.65-27.72c30.76-31.53,63.9-64.55,95.29-95.43Z"/>
    <path class="cls-2" d="M205.03,26.95c.55.51,1.08,1.03,1.6,1.55,1.49,1.52,2.97,3.35,3.93,5.26,7.76,15.44-4.27,23.87-13.93,33.38l-11.19-11.21c-5.53-5.59-11.24-11.18-16.7-16.81,10.24-10.72,20.27-23.06,36.28-12.17Z"/>
    <path class="cls-2" d="M40.94,169.45c8.33,8.08,16.96,16.88,25.2,25.15l-14.4,6.47c-2.23,1.01-4.06,1.85-6.35,2.76-4.53-4.43-9-8.91-13.42-13.45,2.64-6.58,6.07-14.34,8.97-20.92Z"/>
  </g>
</svg>