<?xml version="1.0" encoding="UTF-8"?>
<svg id="Layer_2" data-name="Layer 2" xmlns="http://www.w3.org/2000/svg" viewBox="0 0 21.82 17.08">
  <defs>
    <style>
      .cls-1 {
        fill: #fff;
      }
    </style>
  </defs>
  <g id="Layer_1-2" data-name="Layer 1">
    <path class="cls-1" d="M21.32,7.68l-3.12-2.97L13.49.22C13.34.08,13.14,0,12.93,0c-.45,0-.81.36-.81.81v3.31c-6.26,0-9.14,2.82-10.62,5.96C.72,11.72.32,13.46.03,14.91c0,0,0,.02,0,.02-.01.13-.02.25-.02.37,0,.02,0,.04,0,.05,0,.11,0,.21,0,.3,0,.01,0,.02,0,.03.03.82.28,1.13.53,1.19.21.05.42-.09.52-.27,0-.01.02-.03.03-.04,2.71-4.88,11.03-3.39,11.04-3.39h0v2.57h0v.51c0,.19.07.38.2.53.29.34.8.37,1.14.08l1.81-1.58,6-5.23c.72-.63.74-1.73.05-2.39Z"/>
  </g>
</svg>